<?xml version="1.0" encoding="UTF-8"?>
<svg version="1.1" xmlns="http://www.w3.org/2000/svg" width="1024" height="1024">
<path d="M0 0 C337.92 0 675.84 0 1024 0 C1024 337.92 1024 675.84 1024 1024 C686.08 1024 348.16 1024 0 1024 C0 686.08 0 348.16 0 0 Z " fill="#FEFEFE" transform="translate(0,0)"/>
<path d="M0 0 C1.35398047 -0.00512655 1.35398047 -0.00512655 2.73531407 -0.01035666 C5.76040431 -0.01694608 8.78460757 0.0050583 11.80961609 0.0269165 C13.97781351 0.02804475 16.14601246 0.02741157 18.31420898 0.02514648 C24.20228845 0.02399753 30.09004283 0.04753657 35.97804666 0.07544231 C42.13064192 0.10042551 48.28324441 0.10279554 54.43588257 0.10754395 C66.08764127 0.11998275 77.73925009 0.15281674 89.39094275 0.1929419 C102.65559777 0.23763134 115.92025991 0.25963956 129.18497145 0.27972364 C156.47228965 0.32154847 183.75947475 0.39191824 211.04667664 0.48101807 C210.58047063 1.91359857 210.1113073 3.34521687 209.64091492 4.77642822 C209.3799704 5.57376373 209.11902588 6.37109924 208.85017395 7.19259644 C207.78598994 10.22347366 206.40597546 13.00931936 204.92167664 15.85601807 C204.2974204 17.0725131 203.67512829 18.29001743 203.05448914 19.50836182 C202.56383972 20.4710498 202.56383972 20.4710498 202.0632782 21.45318604 C200.24570623 25.07872704 198.52372413 28.74921109 196.79667664 32.41851807 C194.28603605 37.7515817 191.7642135 43.0782934 189.20292664 48.38726807 C182.94046395 61.37302962 182.94046395 61.37302962 177.27323914 74.62554932 C175.43978602 78.89387489 173.30663773 83.00128473 171.19828796 87.13897705 C168.2742143 92.92093181 165.64839798 98.8090877 163.05839539 104.74664307 C160.4845804 110.60359214 157.69723005 116.32762615 154.74784851 122.00445557 C152.49125846 126.39565783 150.71423776 130.83237074 149.04667664 135.48101807 C148.38667664 135.48101807 147.72667664 135.48101807 147.04667664 135.48101807 C146.71667664 137.13101807 146.38667664 138.78101807 146.04667664 140.48101807 C144.06667664 144.44101807 142.08667664 148.40101807 140.04667664 152.48101807 C32.13667664 152.48101807 -75.77332336 152.48101807 -186.95332336 152.48101807 C-179.27970946 144.80740417 -171.27691002 137.64622268 -162.83613586 130.82867432 C-159.67316877 128.25287049 -156.55998516 125.6241491 -153.45332336 122.98101807 C-149.45085082 119.5757361 -145.41683376 116.22077647 -141.32832336 112.91851807 C-136.62121284 109.09143255 -132.15643953 105.04682501 -127.69160461 100.94195557 C-124.18981901 97.79484439 -120.55172856 94.84224684 -116.89082336 91.88336182 C-111.77746823 87.70156207 -106.79077409 83.37167762 -101.78681946 79.06011963 C-98.67925323 76.38372304 -95.5663538 73.71355473 -92.45332336 71.04351807 C-91.89024475 70.5597168 -91.32716614 70.07591553 -90.74702454 69.57745361 C-89.67555993 68.65807404 -88.60246033 67.74059565 -87.52754211 66.82525635 C-86.44132452 65.89772625 -85.36092066 64.96335938 -84.28535461 64.02349854 C-80.17423573 60.48101807 -80.17423573 60.48101807 -77.95332336 60.48101807 C-77.95332336 59.82101807 -77.95332336 59.16101807 -77.95332336 58.48101807 C-75.88328056 56.74036894 -73.80134096 55.10258999 -71.64082336 53.48101807 C-66.03496958 49.18430727 -60.76466748 44.6729958 -55.58222961 39.86773682 C-52.15220081 36.75369878 -48.56415476 33.86380496 -44.96113586 30.95367432 C-41.44631059 28.06421406 -38.00922223 25.09419213 -34.57832336 22.10601807 C-29.68661732 17.84682796 -24.77965922 13.60833016 -19.82832336 9.41851807 C-19.30834778 8.97781982 -18.78837219 8.53712158 -18.25263977 8.08306885 C-16.82423946 6.87679155 -15.38893989 5.67869815 -13.95332336 4.48101807 C-13.25513898 3.78267979 -12.55695459 3.08434151 -11.83761311 2.36484146 C-7.83393868 -0.25008846 -4.68403127 -0.06485914 0 0 Z " fill="#010101" transform="translate(525.9533233642578,530.5189819335938)"/>
<path d="M0 0 C30.36 0 60.72 0 92 0 C92 2.64 92 5.28 92 8 C90.95199219 8.12117188 89.90398437 8.24234375 88.82421875 8.3671875 C87.44526114 8.53603945 86.06635761 8.70533341 84.6875 8.875 C83.99720703 8.95363281 83.30691406 9.03226562 82.59570312 9.11328125 C79.04360529 9.55943847 77.0302971 9.97980193 74 12 C72.93489664 17.0059858 74.18116652 19.80254572 76.8125 24.125 C80.53163712 29.61016601 84.75271387 34.58686083 89.0859375 39.5859375 C92.60377302 43.66359041 95.90739521 47.90159618 99.20800781 52.15551758 C99.84367676 52.97379028 99.84367676 52.97379028 100.4921875 53.80859375 C100.90178711 54.33694824 101.31138672 54.86530273 101.73339844 55.40966797 C103.05660914 57.07107786 104.43399137 58.67622487 105.8203125 60.28515625 C108 63 108 63 108 65 C108.66 65 109.32 65 110 65 C110.22558594 64.45472656 110.45117188 63.90945313 110.68359375 63.34765625 C112.39150034 60.30180502 114.67090456 57.94722909 117.0625 55.4375 C122.3051799 49.82199967 127.20879247 44.00750035 132 38 C132.91414369 36.9117337 133.82955815 35.82453385 134.74609375 34.73828125 C141.19908275 27.24109262 141.19908275 27.24109262 143.4375 17.87109375 C142.62825699 14.41013482 140.83119773 12.98786224 138 11 C133.1993161 8.81787096 128.20017552 8.43912593 123 8 C123 5.36 123 2.72 123 0 C145.44 0 167.88 0 191 0 C191 2.31 191 4.62 191 7 C190.10539063 7.14695312 189.21078125 7.29390625 188.2890625 7.4453125 C174.79185364 9.94905913 166.75914528 15.6005668 157 25 C155.8553125 26.08474609 155.8553125 26.08474609 154.6875 27.19140625 C149.80985091 31.92509694 145.48775177 36.9545298 141.2421875 42.2578125 C139.11375379 44.86087952 136.90286308 47.34008633 134.625 49.8125 C130.37148722 54.47110924 126.48383418 59.36629032 122.62939453 64.35473633 C120.83261929 66.67918784 119.08003063 68.91996937 117 71 C117.18711468 75.72667955 119.5349261 78.22543458 122.5625 81.6875 C123.48257633 82.75581722 124.4018375 83.82483699 125.3203125 84.89453125 C125.77696289 85.42127441 126.23361328 85.94801758 126.70410156 86.49072266 C131.24301857 91.77700468 135.47749845 97.33004714 139.76391602 102.82080078 C145.0035726 109.52568152 150.36341809 116.11892101 155.79833984 122.66650391 C159.06682072 126.61468533 162.26527601 130.60175454 165.38745117 134.66650391 C176.44699038 149.04132874 185.05730957 156.38958058 203 160 C203 162.31 203 164.62 203 167 C172.31 167 141.62 167 110 167 C110 164.36 110 161.72 110 159 C110.72445312 158.96261719 111.44890625 158.92523437 112.1953125 158.88671875 C120.10095599 158.49185437 120.10095599 158.49185437 127 155 C128.52647068 151.83390301 128.52647068 151.83390301 128 148 C126.40506288 144.68080652 124.26956709 141.88810739 122 139 C121.39542969 138.22785156 120.79085937 137.45570313 120.16796875 136.66015625 C118.85146132 135.00580781 117.52540005 133.3590308 116.19140625 131.71875 C113.80995128 128.76421763 111.49271303 125.76398677 109.1875 122.75 C103.85358556 115.78447362 98.43251524 108.88875982 93 102 C88.89635439 103.55195878 86.62098455 106.50311015 83.9375 109.8125 C82.96135696 110.99513801 81.98478215 112.17741976 81.0078125 113.359375 C80.51055664 113.96458984 80.01330078 114.56980469 79.50097656 115.19335938 C78.06183977 116.92556697 76.59711192 118.6307134 75.1171875 120.328125 C63.03718344 133.10802904 63.03718344 133.10802904 57.765625 149.09375 C58.1391663 152.13188592 58.90435498 153.76915208 61 156 C66.23428088 158.61714044 72.24405258 158.61080783 78 159 C78 161.64 78 164.28 78 167 C55.56 167 33.12 167 10 167 C10 164.69 10 162.38 10 160 C10.77601563 159.81566406 11.55203125 159.63132812 12.3515625 159.44140625 C29.63562265 154.80069798 40.83298886 144.31581388 51.84765625 130.58984375 C53.64949998 128.42174504 55.47301814 126.45208184 57.5 124.5 C61.21491154 120.91318886 64.36062123 116.93332875 67.59375 112.9140625 C70.83926046 108.98362289 74.27403284 105.2454074 77.73828125 101.5078125 C78.48464844 100.68023437 79.23101563 99.85265625 80 99 C80.77730469 98.17242187 81.55460938 97.34484375 82.35546875 96.4921875 C84.22763054 94.15150191 84.22763054 94.15150191 84.00390625 91.51171875 C82.76269086 88.40626546 81.12026743 86.34720591 78.9375 83.8125 C78.1228125 82.84957031 77.308125 81.88664062 76.46875 80.89453125 C75.6540625 79.93933594 74.839375 78.98414063 74 78 C69.88173463 72.98278491 65.90030106 67.90588204 62.125 62.625 C58.51288864 57.60465808 54.62288496 52.88366483 50.62890625 48.1640625 C48.34189611 45.4408216 46.15814543 42.64866503 43.98876953 39.83129883 C31.69188976 23.88233823 20.68752058 10.81981641 0 7 C0 4.69 0 2.38 0 0 Z " fill="#050505" transform="translate(463,354)"/>
<path d="M0 0 C4.62264176 3.82534208 8.00645226 7.59599343 8.8125 13.73828125 C9.11680359 19.84279563 8.20697599 23.51425857 4.50390625 28.38671875 C0.80152022 31.58423396 -2.57971574 33.16747258 -7.41015625 33.546875 C-12.68332508 33.14200623 -16.39222879 30.51818034 -19.99609375 26.82421875 C-22.11830861 21.9608097 -22.16570224 17.61604221 -21.49609375 12.38671875 C-19.89310724 8.6464169 -18.89871677 7.6551341 -15.49609375 5.38671875 C-14.50609375 5.38671875 -13.51609375 5.38671875 -12.49609375 5.38671875 C-12.49609375 4.72671875 -12.49609375 4.06671875 -12.49609375 3.38671875 C-18.07931105 1.52564632 -23.62563938 1.85675668 -29.24609375 3.44921875 C-38.40262156 8.90791802 -42.31255073 18.38566608 -44.83984375 28.34375 C-51.06815067 57.22381601 -49.5862376 88.10344294 -49.86053181 117.52673054 C-51.50651541 293.60639448 -51.50651541 293.60639448 -72.49609375 321.38671875 C-73.25019531 322.44826172 -73.25019531 322.44826172 -74.01953125 323.53125 C-80.82673966 332.81800718 -89.61750681 339.12045585 -100.9140625 342.00390625 C-111.51662164 343.57584391 -121.87775234 343.02615409 -130.84765625 336.73828125 C-135.40142284 332.94623561 -138.97039812 329.36185124 -140.03515625 323.3359375 C-140.1933236 317.3327675 -140.17454848 313.30663639 -136.12109375 308.63671875 C-131.26912936 303.88458902 -127.38042437 303.99093866 -120.7109375 304.03515625 C-116.00715265 304.54954341 -114.5074063 305.80569842 -111.49609375 309.38671875 C-108.9615707 313.66372639 -108.94777938 317.52780988 -109.49609375 322.38671875 C-111.04167558 326.5597897 -112.61460234 329.13294955 -116.49609375 331.38671875 C-117.15609375 331.38671875 -117.81609375 331.38671875 -118.49609375 331.38671875 C-118.49609375 332.04671875 -118.49609375 332.70671875 -118.49609375 333.38671875 C-112.41880935 335.1051233 -106.69073824 335.19142173 -100.74609375 333.01171875 C-90.82148829 326.28633905 -88.55210542 312.06292035 -86.453125 301.14453125 C-85.45750279 295.5130731 -84.8809036 289.89755724 -84.43359375 284.19921875 C-84.35560547 283.30525391 -84.27761719 282.41128906 -84.19726562 281.49023438 C-82.6336004 262.32564322 -82.34132808 243.06561305 -82.08110237 223.84829712 C-82.02950615 220.07157298 -81.9730439 216.29494685 -81.91539001 212.51831055 C-81.76247256 202.46450703 -81.61420009 192.41064117 -81.47437072 182.35664678 C-80.71877495 128.03852017 -80.71877495 128.03852017 -79.515625 104.40234375 C-79.47545824 103.60496796 -79.43529148 102.80759216 -79.39390755 101.98605347 C-77.6820929 68.83811787 -75.46292863 28.46525755 -49.5625 4.60546875 C-35.82606134 -6.58930039 -15.36928021 -9.93350974 0 0 Z " fill="#030303" transform="translate(463.49609375,288.61328125)"/>
<path d="M0 0 C4.89617983 2.69789501 4.89617983 2.69789501 6.0625 4.6875 C6.6765001 9.95035804 6.3607549 13.41132301 3.41015625 18.01171875 C1.01631901 20.98840332 -1.76624805 23.55510645 -4.9375 25.6875 C-5.5975 25.6875 -6.2575 25.6875 -6.9375 25.6875 C-3.61682376 30.88047242 -0.22249075 35.73993311 3.9609375 40.27734375 C5.0625 41.6875 5.0625 41.6875 5.0625 43.6875 C9.89114757 39.31872363 11.43133897 35.12534253 12.0625 28.6875 C9.7525 28.6875 7.4425 28.6875 5.0625 28.6875 C5.0625 27.3675 5.0625 26.0475 5.0625 24.6875 C12.3225 24.6875 19.5825 24.6875 27.0625 24.6875 C27.0625 26.0075 27.0625 27.3275 27.0625 28.6875 C24.0925 28.6875 21.1225 28.6875 18.0625 28.6875 C17.96453125 29.32816406 17.8665625 29.96882813 17.765625 30.62890625 C17.01063407 34.99613825 16.27677174 38.75496196 13.9375 42.5625 C11.71950283 45.65177113 11.71950283 45.65177113 12.0625 49.6875 C13.95267954 52.12220147 16.22462054 53.53040328 19.0625 54.6875 C22.49960755 54.80722508 25.69866208 54.37109684 29.0625 53.6875 C28.21611611 57.49622749 27.66550851 59.25677964 24.4375 61.5625 C19.00800722 63.37233093 14.49367832 63.48077205 9.25 61.3125 C6.0625 59.6875 6.0625 59.6875 3.0625 57.6875 C0.36902387 57.96613546 -1.49933643 58.96841821 -3.9375 60.1875 C-10.32718619 63.3823431 -17.61157708 63.89351488 -24.515625 61.96875 C-29.14738662 60.06696708 -32.29558108 58.0906982 -34.9375 53.6875 C-36.48590056 49.94553199 -36.36188702 45.67513652 -35.9375 41.6875 C-33.60241223 36.05581774 -28.44386914 30.91402107 -23 28.25 C-22.319375 28.064375 -21.63875 27.87875 -20.9375 27.6875 C-21.576875 26.615 -22.21625 25.5425 -22.875 24.4375 C-24.34084203 21.84767309 -25.56429347 19.67315223 -25.9375 16.6875 C-26.1540625 15.07875 -26.1540625 15.07875 -26.375 13.4375 C-25.76983344 8.25035806 -23.5356924 5.36860006 -19.9375 1.6875 C-14.14425188 -2.52577136 -6.56899658 -2.63038211 0 0 Z " fill="#0A0A0A" transform="translate(471.9375,419.3125)"/>
<path d="M0 0 C4.62 0 9.24 0 14 0 C17.42247975 3.92521689 19.20912989 6.5707017 21.375 11.125 C21.91253906 12.15238281 22.45007813 13.17976562 23.00390625 14.23828125 C24.69789378 17.47737855 26.34837457 20.73909851 28 24 C30.64 28.62 33.28 33.24 36 38 C36 25.46 36 12.92 36 0 C39.63 0 43.26 0 47 0 C47 17.82 47 35.64 47 54 C42.05 54 37.1 54 32 54 C30.7934375 51.7415625 30.7934375 51.7415625 29.5625 49.4375 C26.68060597 44.14949633 23.63607743 38.97862606 20.51196289 33.83178711 C16.93185119 27.9280727 13.4816248 21.96849965 10 16 C10 28.54 10 41.08 10 54 C6.7 54 3.4 54 0 54 C0 36.18 0 18.36 0 0 Z " fill="#050505" transform="translate(563,704)"/>
<path d="M0 0 C3.63 0 7.26 0 11 0 C11 18.81 11 37.62 11 57 C8.03 57 5.06 57 2 57 C1.34 55.68 0.68 54.36 0 53 C-0.66 52.67 -1.32 52.34 -2 52 C-2.33 52.99 -2.66 53.98 -3 55 C-7.48966662 58.03383368 -12.80914691 57.62475349 -18 57 C-21.96301484 54.77080415 -24.01822761 52.06263341 -26 48 C-28.15811212 39.35245982 -28.19948138 29.98161905 -24.36328125 21.8671875 C-22.48643565 19.29660814 -20.6920291 17.71654665 -18 16 C-14.66796875 15.609375 -14.66796875 15.609375 -11.1875 15.75 C-10.02605469 15.78609375 -8.86460937 15.8221875 -7.66796875 15.859375 C-6.78753906 15.90578125 -5.90710938 15.9521875 -5 16 C-5 16.66 -5 17.32 -5 18 C-3.68 18.66 -2.36 19.32 -1 20 C-0.67 13.4 -0.34 6.8 0 0 Z " fill="#080808" transform="translate(525,701)"/>
<path d="M0 0 C1.36365283 0.95824253 2.70794169 1.94721175 4 3 C6.72903048 2.81806463 8.35863533 1.79622993 10.75 0.4375 C14.71335041 -1.31552038 17.73455855 -1.63853914 22 -1 C25.58639824 0.42102572 28.63675068 1.89046142 31 5 C32.30086545 8.74550861 32.11325126 12.46068317 32.09765625 16.390625 C32.0962413 17.09523865 32.09482635 17.79985229 32.09336853 18.52581787 C32.08778933 20.76725584 32.07524073 23.00859243 32.0625 25.25 C32.05748231 26.77343605 32.05291987 28.29687368 32.04882812 29.8203125 C32.03782674 33.54690772 32.02057646 37.27344396 32 41 C28.37 41 24.74 41 21 41 C20.98541748 40.10168457 20.97083496 39.20336914 20.95581055 38.27783203 C20.89480303 34.9489341 20.82066372 31.62087117 20.73754883 28.29248047 C20.70426822 26.85118658 20.67624596 25.40976137 20.65356445 23.96826172 C20.6200738 21.89754203 20.567767 19.82802907 20.51171875 17.7578125 C20.48553467 16.5114502 20.45935059 15.26508789 20.43237305 13.98095703 C20.21834839 12.5053833 20.21834839 12.5053833 20 11 C16.1496895 8.43312633 14.41430237 9.16711276 10 10 C8.23349751 13.83362031 7.71028724 16.96861491 7.5859375 21.17578125 C7.54726563 22.33271484 7.50859375 23.48964844 7.46875 24.68164062 C7.42234375 26.47891602 7.42234375 26.47891602 7.375 28.3125 C7.33632813 29.53001953 7.29765625 30.74753906 7.2578125 32.00195312 C7.16371998 35.00115228 7.07807791 38.00034823 7 41 C3.37 41 -0.26 41 -4 41 C-4.01981934 40.10168457 -4.03963867 39.20336914 -4.06005859 38.27783203 C-4.13809261 34.94909922 -4.22478114 31.62082744 -4.31738281 28.29248047 C-4.35569674 26.8511626 -4.39054543 25.40974832 -4.421875 23.96826172 C-4.46747446 21.89776114 -4.52547444 19.82792567 -4.5859375 17.7578125 C-4.63306885 15.88826904 -4.63306885 15.88826904 -4.68115234 13.98095703 C-4.69682309 10.88458224 -4.69682309 10.88458224 -7 9 C-8.98821313 8.60235737 -10.98944339 8.26224651 -13 8 C-13 8.66 -13 9.32 -13 10 C-14 11 -15 12 -16 13 C-17.03714522 16.11143567 -17.20031861 18.49468096 -17.31640625 21.76171875 C-17.35830078 22.87998047 -17.40019531 23.99824219 -17.44335938 25.15039062 C-17.48267578 26.31763672 -17.52199219 27.48488281 -17.5625 28.6875 C-17.60568359 29.86634766 -17.64886719 31.04519531 -17.69335938 32.25976562 C-17.79951094 35.17303626 -17.90026629 38.0865026 -18 41 C-21.63 41 -25.26 41 -29 41 C-29 27.47 -29 13.94 -29 0 C-26.03 0 -23.06 0 -20 0 C-19.34 0.99 -18.68 1.98 -18 3 C-17.2575 2.525625 -16.515 2.05125 -15.75 1.5625 C-10.46822009 -1.43851132 -5.84848681 -1.27564038 0 0 Z " fill="#060606" transform="translate(695,717)"/>
<path d="M0 0 C0 0.66 0 1.32 0 2 C0.9075 1.195625 1.815 0.39125 2.75 -0.4375 C6.99106283 -3.92897963 10.33887353 -4.33205137 15.89453125 -4.30078125 C19.5080563 -3.78456339 21.99050851 -2.00632766 25 0 C25 0.66 25 1.32 25 2 C25.66 2 26.32 2 27 2 C27.85916096 6.44147569 28.11697565 10.62769824 28.09765625 15.1484375 C28.0962413 15.80582916 28.09482635 16.46322083 28.09336853 17.14053345 C28.08781762 19.21873731 28.07527465 21.29682927 28.0625 23.375 C28.05747864 24.79296718 28.05291685 26.21093607 28.04882812 27.62890625 C28.03786437 31.08597322 28.02063421 34.54297567 28 38 C24.37 38 20.74 38 17 38 C16.97494385 37.17274414 16.9498877 36.34548828 16.92407227 35.49316406 C16.80803651 31.74528808 16.685344 27.99765875 16.5625 24.25 C16.52318359 22.94804688 16.48386719 21.64609375 16.44335938 20.3046875 C16.40146484 19.05429687 16.35957031 17.80390625 16.31640625 16.515625 C16.26141968 14.78747559 16.26141968 14.78747559 16.20532227 13.02441406 C16.03547826 10.52259776 15.72031525 8.38908832 15 6 C10.01633739 5.56768505 10.01633739 5.56768505 5.625 7.625 C1.87017109 13.11282687 2.69121844 20.92805609 2.4375 27.375 C2.37272461 28.90833984 2.37272461 28.90833984 2.30664062 30.47265625 C2.20112287 32.98163405 2.10011237 35.4908007 2 38 C-1.3 38 -4.6 38 -8 38 C-8.01981934 37.23856689 -8.03963867 36.47713379 -8.06005859 35.69262695 C-8.15549922 32.23224528 -8.26510212 28.77245145 -8.375 25.3125 C-8.4059375 24.11431641 -8.436875 22.91613281 -8.46875 21.68164062 C-8.50742187 20.52470703 -8.54609375 19.36777344 -8.5859375 18.17578125 C-8.63306885 16.58117065 -8.63306885 16.58117065 -8.68115234 14.9543457 C-9.01123692 11.89588207 -9.52406852 9.69947208 -11 7 C-14.53514293 5.62032476 -14.53514293 5.62032476 -18 5 C-18 5.66 -18 6.32 -18 7 C-18.99 7.66 -19.98 8.32 -21 9 C-22.21124294 12.19041833 -22.19553441 15.47496357 -22.31640625 18.859375 C-22.35830078 19.97441406 -22.40019531 21.08945312 -22.44335938 22.23828125 C-22.50233398 23.97658203 -22.50233398 23.97658203 -22.5625 25.75 C-22.60568359 26.92433594 -22.64886719 28.09867188 -22.69335938 29.30859375 C-22.79934717 32.20559355 -22.90016916 35.1027815 -23 38 C-26.63 38 -30.26 38 -34 38 C-34 24.47 -34 10.94 -34 -3 C-31.03 -3 -28.06 -3 -25 -3 C-24.34 -1.68 -23.68 -0.36 -23 1 C-22.2575 0.360625 -21.515 -0.27875 -20.75 -0.9375 C-13.75566047 -6.18325465 -6.87002626 -4.48654776 0 0 Z " fill="#060606" transform="translate(284,720)"/>
<path d="M0 0 C3.63 0 7.26 0 11 0 C11 6.6 11 13.2 11 20 C12.65 18.68 14.3 17.36 16 16 C21.15344235 14.97981345 25.7209636 15.42900161 30.5 17.5625 C35.77105468 22.70177831 36.99584372 29.28371767 37.1875 36.375 C37.0880526 43.85841651 34.83966292 49.6107249 30.0625 55.3125 C25.32028551 57.92555696 20.30044261 57.80928353 15 57 C12.62890625 55.47265625 12.62890625 55.47265625 11 54 C10.34 54.99 9.68 55.98 9 57 C6.03 57 3.06 57 0 57 C0 38.19 0 19.38 0 0 Z " fill="#070707" transform="translate(737,701)"/>
<path d="M0 0 C-0.48578543 3.12290635 -0.9986012 5.99580359 -2 9 C-3.093125 8.835 -4.18625 8.67 -5.3125 8.5 C-15.11196011 7.25722625 -15.11196011 7.25722625 -24.5 9.5625 C-29.31494719 14.25707351 -30.18258461 18.41659977 -30.4375 24.9375 C-30.29331109 30.16107083 -29.58849625 34.98993256 -26 39 C-22.4279028 40.83498144 -19.16589627 41.33740509 -15.1875 41.625 C-12.6196875 41.810625 -12.6196875 41.810625 -10 42 C-10 38.37 -10 34.74 -10 31 C-13.63 31 -17.26 31 -21 31 C-21 27.7 -21 24.4 -21 21 C-13.74 21 -6.48 21 1 21 C1 29.91 1 38.82 1 48 C-5.5589569 50.62358276 -10.90976664 51.20425134 -17.875 51.25 C-18.65230469 51.270625 -19.42960937 51.29125 -20.23046875 51.3125 C-26.53472097 51.35488153 -31.34662196 50.45038737 -36.14453125 46.01953125 C-43.08615742 36.83447555 -43.99750759 28.36902883 -43 17 C-41.56730607 10.31711757 -38.64242508 5.62803377 -33.265625 1.40625 C-23.7412286 -4.50544432 -10.08349431 -5.04174715 0 0 Z " fill="#080808" transform="translate(197,707)"/>
<path d="M0 0 C3.96 0 7.92 0 12 0 C9.57876787 7.53628544 6.76124726 14.88090948 3.875 22.25 C-1.05078779 34.89211256 -5.89875508 47.56315867 -10.70135498 60.25256348 C-11.43011361 62.17747903 -12.15977805 64.10205195 -12.89044189 66.02624512 C-17.0217078 76.90924393 -21.0472005 87.81715428 -24.84004211 98.82328796 C-25.11027695 99.60645889 -25.38051178 100.38962982 -25.65893555 101.1965332 C-25.89484909 101.88511917 -26.13076263 102.57370514 -26.37382507 103.28315735 C-27 105 -27 105 -28 107 C-31.96 107 -35.92 107 -40 107 C-39.391502 102.52840418 -38.25334356 98.63073151 -36.63671875 94.421875 C-36.28683647 93.50465668 -36.28683647 93.50465668 -35.92988586 92.56890869 C-35.18766089 90.62721737 -34.43765267 88.68864027 -33.6875 86.75 C-33.19546492 85.46503457 -32.70392443 84.17987964 -32.21289062 82.89453125 C-30.17684258 77.57692213 -28.11881408 72.26959769 -25.98046875 66.9921875 C-23.63250964 61.1568097 -21.4906874 55.24578621 -19.33911133 49.33596802 C-18.12807676 46.01043603 -16.91135237 42.68698549 -15.6953125 39.36328125 C-15.45923279 38.71767746 -15.22315308 38.07207367 -14.97991943 37.40690613 C-13.16790508 32.45327781 -11.34627579 27.50346236 -9.5 22.5625 C-8.86578125 20.86287109 -8.86578125 20.86287109 -8.21875 19.12890625 C-5.69869282 12.65914407 -2.8282601 6.33920367 0 0 Z " fill="#F6F6F6" transform="translate(592,549)"/>
<path d="M0 0 C0.68578125 -0.02449219 1.3715625 -0.04898438 2.078125 -0.07421875 C7.21927692 -0.10365283 10.14698169 1.00360898 14 4.375 C16.82238676 8.97135102 17.35934666 12.38770295 17.29296875 17.7421875 C17.28872391 18.42177521 17.28447906 19.10136292 17.28010559 19.80154419 C17.26344266 21.95144924 17.22581716 24.10038299 17.1875 26.25 C17.172437 27.7161322 17.15875143 29.18227924 17.14648438 30.6484375 C17.1135808 34.22426875 17.06188663 37.79953941 17 41.375 C14.03 41.375 11.06 41.375 8 41.375 C7.67 40.055 7.34 38.735 7 37.375 C6.34 37.045 5.68 36.715 5 36.375 C5 37.035 5 37.695 5 38.375 C0.19297613 42.03407787 -4.11017591 41.926365 -9.953125 41.80078125 C-13 41.375 -13 41.375 -16.25 39.0625 C-19.12449297 34.64810009 -19.56628924 30.54238935 -19 25.375 C-17.35640671 21.6769151 -15.45782834 19.47065354 -12 17.375 C-8.28505362 16.10204635 -4.64471564 16.27643782 -0.75 16.3125 C1.14492187 16.32603516 1.14492187 16.32603516 3.078125 16.33984375 C4.04234375 16.35144531 5.0065625 16.36304688 6 16.375 C5.03223902 12.57952079 5.03223902 12.57952079 3 9.375 C-2.42730132 9.04271625 -6.82849117 9.9233484 -12 11.375 C-13.5625 8.5625 -13.5625 8.5625 -15 5.375 C-14.67 4.385 -14.34 3.395 -14 2.375 C-9.42325182 0.29592842 -4.95508618 0.00931407 0 0 Z " fill="#070707" transform="translate(224,716.625)"/>
<path d="M0 0 C4.05773707 2.80920259 4.05773707 2.80920259 5.25 6.25 C5.41786322 8.82534673 5.48317374 11.28754393 5.4453125 13.859375 C5.4424826 14.58618469 5.43965271 15.31299438 5.43673706 16.06182861 C5.42557523 18.37472251 5.40047851 20.68722388 5.375 23 C5.36496501 24.57160898 5.35584006 26.14322404 5.34765625 27.71484375 C5.32564904 31.56004622 5.29114715 35.40495664 5.25 39.25 C2.61 39.25 -0.03 39.25 -2.75 39.25 C-3.245 36.775 -3.245 36.775 -3.75 34.25 C-4.40742188 34.79140625 -4.40742188 34.79140625 -5.078125 35.34375 C-10.32361847 39.18191596 -14.56983991 39.95281917 -21.03125 39.68359375 C-24.56639134 39.11979966 -26.43331456 37.96611397 -28.75 35.25 C-30.85033168 31.04933664 -30.28617497 25.81358012 -29.75 21.25 C-26.75967941 16.85246971 -23.76378338 15.62396948 -18.75 14.25 C-15.3203125 14.0546875 -15.3203125 14.0546875 -11.875 14.125 C-10.72257812 14.14304687 -9.57015625 14.16109375 -8.3828125 14.1796875 C-7.51398438 14.20289063 -6.64515625 14.22609375 -5.75 14.25 C-6.35183749 12.22954558 -7.02306096 10.22888961 -7.75 8.25 C-10.31556142 6.96721929 -11.78928737 7.31366063 -14.625 7.625 C-15.48867188 7.71523438 -16.35234375 7.80546875 -17.2421875 7.8984375 C-19.47360645 8.21125324 -21.57942758 8.65435454 -23.75 9.25 C-26.75 4.625 -26.75 4.625 -26.75 1.25 C-18.56761336 -2.67754559 -8.45677943 -3.90431605 0 0 Z " fill="#070707" transform="translate(439.75,718.75)"/>
<path d="M0 0 C4.6840651 2.69717683 6.39091977 6.41091774 8.3125 11.375 C8.71623601 14.70582208 8.5625 18.0822983 8.5625 21.4375 C-0.0175 21.4375 -8.5975 21.4375 -17.4375 21.4375 C-15.25690167 28.28575895 -15.25690167 28.28575895 -11.4375 30.4375 C-5.53292143 31.22943559 -0.08746144 30.08112515 5.5625 28.4375 C5.5625 31.4075 5.5625 34.3775 5.5625 37.4375 C0.92977376 39.76784519 -3.3051628 39.80422271 -8.375 39.8125 C-9.16068359 39.83699219 -9.94636719 39.86148438 -10.75585938 39.88671875 C-16.1346196 39.91372508 -19.18471131 39.01370867 -23.4375 35.4375 C-29.16751697 27.84909915 -29.11445781 20.5907323 -28.4375 11.4375 C-27.17501181 6.58954533 -25.28188728 4.10956334 -21.375 1 C-14.76817637 -2.51426789 -6.94303478 -3.05389124 0 0 Z " fill="#080808" transform="translate(807.4375,718.5625)"/>
<path d="M0 0 C5.15650797 3.22281748 7.92701825 5.91119802 9.4375 11.953125 C9.4375 15.253125 9.4375 18.553125 9.4375 21.953125 C0.8575 21.953125 -7.7225 21.953125 -16.5625 21.953125 C-14.38190167 28.80138395 -14.38190167 28.80138395 -10.5625 30.953125 C-4.52396524 31.36957567 0.58063404 30.41734149 6.4375 28.953125 C6.4375 31.923125 6.4375 34.893125 6.4375 37.953125 C1.80477376 40.28347019 -2.4301628 40.31984771 -7.5 40.328125 C-8.28568359 40.35261719 -9.07136719 40.37710938 -9.88085938 40.40234375 C-15.26081547 40.42935608 -18.30615689 39.52587361 -22.5625 35.953125 C-28.33768167 28.46099743 -28.30729498 21.20099596 -27.5625 11.953125 C-26.03876004 6.5372232 -23.33337369 3.01137737 -18.5625 -0.046875 C-12.79618217 -1.96898094 -5.68070171 -2.32077448 0 0 Z " fill="#080808" transform="translate(346.5625,718.046875)"/>
<path d="M0 0 C2.13676695 1.75390798 3.80775713 3.40067051 5.05078125 5.88671875 C5.13736694 8.44034479 5.16640641 10.96626295 5.1484375 13.51953125 C5.14702255 14.27136688 5.1456076 15.02320251 5.14414978 15.79782104 C5.1385459 18.20249385 5.12599282 20.60707402 5.11328125 23.01171875 C5.10826675 24.64062366 5.10370375 26.26953002 5.09960938 27.8984375 C5.08857522 31.89456702 5.07130804 35.89062717 5.05078125 39.88671875 C1.42078125 39.88671875 -2.20921875 39.88671875 -5.94921875 39.88671875 C-5.96903809 39.02393311 -5.98885742 38.16114746 -6.00927734 37.2722168 C-6.08741519 34.06834919 -6.17410957 30.86485981 -6.26660156 27.66137695 C-6.30486225 26.27539968 -6.33972031 24.8893241 -6.37109375 23.50317383 C-6.41680574 21.50970235 -6.475808 19.51654961 -6.53515625 17.5234375 C-6.5822876 15.72459106 -6.5822876 15.72459106 -6.63037109 13.8894043 C-6.73351369 10.70789169 -6.73351369 10.70789169 -8.94921875 7.88671875 C-11.86414425 7.30289915 -11.86414425 7.30289915 -14.94921875 7.88671875 C-17.79702494 10.11878306 -18.79919541 11.43664874 -19.94921875 14.88671875 C-20.09861649 16.80437469 -20.19732158 18.72618397 -20.265625 20.6484375 C-20.30751953 21.76669922 -20.34941406 22.88496094 -20.39257812 24.03710938 C-20.43189453 25.20435547 -20.47121094 26.37160156 -20.51171875 27.57421875 C-20.55490234 28.75306641 -20.59808594 29.93191406 -20.64257812 31.14648438 C-20.74872969 34.05975501 -20.84948504 36.97322135 -20.94921875 39.88671875 C-24.57921875 39.88671875 -28.20921875 39.88671875 -31.94921875 39.88671875 C-31.94921875 26.35671875 -31.94921875 12.82671875 -31.94921875 -1.11328125 C-28.97921875 -1.11328125 -26.00921875 -1.11328125 -22.94921875 -1.11328125 C-22.28921875 0.20671875 -21.62921875 1.52671875 -20.94921875 2.88671875 C-20.20671875 2.24734375 -19.46421875 1.60796875 -18.69921875 0.94921875 C-13.40437637 -3.02191303 -5.83817872 -3.33443073 0 0 Z " fill="#070707" transform="translate(485.94921875,718.11328125)"/>
<path d="M0 0 C3.63 0 7.26 0 11 0 C11.02505615 0.79172607 11.0501123 1.58345215 11.07592773 2.39916992 C11.19215729 5.99543363 11.31476176 9.5914528 11.4375 13.1875 C11.47681641 14.43337891 11.51613281 15.67925781 11.55664062 16.96289062 C11.61948242 18.7659668 11.61948242 18.7659668 11.68359375 20.60546875 C11.72025146 21.71043701 11.75690918 22.81540527 11.79467773 23.95385742 C11.95736051 27.34895156 11.95736051 27.34895156 13 32 C16.3 31.34 19.6 30.68 23 30 C25.19385228 23.71274041 25.42769342 17.68460222 25.625 11.0625 C25.66367187 9.99708984 25.70234375 8.93167969 25.7421875 7.83398438 C25.83585789 5.2229222 25.91899065 2.61148565 26 0 C29.63 0 33.26 0 37 0 C37 13.53 37 27.06 37 41 C34.36 41 31.72 41 29 41 C28.505 38.525 28.505 38.525 28 36 C26.6078125 36.9590625 26.6078125 36.9590625 25.1875 37.9375 C19.43454804 41.65999833 13.70247108 41.82422279 7 41 C3.7082528 38.56410708 2.2523173 36.37847595 0 33 C-0.1712914 30.45770403 -0.23242934 28.02810519 -0.1953125 25.48828125 C-0.1924826 24.76005661 -0.18965271 24.03183197 -0.18673706 23.28153992 C-0.17555257 20.95835863 -0.15045166 18.63556453 -0.125 16.3125 C-0.11496794 14.7363337 -0.10584248 13.16016135 -0.09765625 11.58398438 C-0.07561896 7.72250733 -0.04110141 3.86131929 0 0 Z " fill="#040404" transform="translate(619,717)"/>
<path d="M0 0 C1.06971223 4.32342028 1.30670203 7.70872951 0 12 C-3.74896309 15.9184311 -8.98631839 18.23525808 -13.72363281 20.74707031 C-17.43382439 22.78918777 -20.92688503 25.13612009 -24.4375 27.5 C-25.40345093 28.13252686 -25.40345093 28.13252686 -26.38891602 28.77783203 C-29.73316468 30.87550979 -29.73316468 30.87550979 -32 34 C-31.27022949 34.27473145 -30.54045898 34.54946289 -29.78857422 34.83251953 C-27.14614124 35.93881567 -24.82680087 37.19255574 -22.3828125 38.6796875 C-21.52816406 39.19660156 -20.67351562 39.71351563 -19.79296875 40.24609375 C-18.91253906 40.78363281 -18.03210938 41.32117188 -17.125 41.875 C-15.37801697 42.93557611 -13.63062852 43.99548471 -11.8828125 45.0546875 C-10.63999512 45.80830566 -10.63999512 45.80830566 -9.37207031 46.57714844 C-6.27512108 48.43480798 -3.1454364 50.22587102 0 52 C0 55.63 0 59.26 0 63 C-5.17109014 60.93156394 -9.54466114 58.29427135 -14.18554688 55.29199219 C-18.14200496 52.74651622 -22.11678966 50.37071552 -26.2734375 48.1640625 C-38.56588235 41.45929878 -38.56588235 41.45929878 -41.97265625 35.6171875 C-42.69642084 31.33211766 -42.50241106 28.52813093 -40 25 C-34.39425931 19.8544528 -27.58684112 16.31664705 -20.95996094 12.66943359 C-16.56596716 10.19119791 -12.3849855 7.41888965 -8.1875 4.625 C-1.15303568 0 -1.15303568 0 0 0 Z " fill="#F4F4F4" transform="translate(528,573)"/>
<path d="M0 0 C3.9204193 1.43718804 7.31029422 3.29079063 10.859375 5.484375 C11.97570312 6.17273438 13.09203125 6.86109375 14.2421875 7.5703125 C14.81936523 7.92899414 15.39654297 8.28767578 15.99121094 8.65722656 C17.72853618 9.73666407 19.46936659 10.81024163 21.2109375 11.8828125 C23.45101228 13.26805415 25.6811911 14.66944678 27.90039062 16.08789062 C30.90367467 18.0081604 30.90367467 18.0081604 33.83398438 19.39648438 C36.40556746 20.74369587 38.13340753 21.77303583 40 24 C41.37824493 28.63424052 41.37585114 32.36563016 40 37 C37.20843425 40.34389964 33.88762018 42.11812231 30.0625 44.125 C28.04880059 45.28528144 26.03578793 46.44675551 24.0234375 47.609375 C23.01249023 48.17205078 22.00154297 48.73472656 20.95996094 49.31445312 C16.57511852 51.81139737 12.38819417 54.58310601 8.1875 57.375 C1.15183156 62 1.15183156 62 0 62 C-1.44186706 57.55424323 -1.62355408 54.41803505 0 50 C5.05375371 45.14346595 11.50859474 41.84850496 17.56347656 38.40527344 C20.56913365 36.67175017 23.40597035 34.79919898 26.25 32.8125 C26.99765625 32.30332031 27.7453125 31.79414062 28.515625 31.26953125 C29.00546875 30.85058594 29.4953125 30.43164062 30 30 C30 29.34 30 28.68 30 28 C29.175 27.53851562 28.35 27.07703125 27.5 26.6015625 C25.04767778 25.22352257 22.61098964 23.82101371 20.1796875 22.40625 C17.31848601 20.74165018 14.42718032 19.15377535 11.5078125 17.59375 C0.53721425 11.52418926 0.53721425 11.52418926 -1.0078125 7.140625 C-1.00053093 4.56295091 -0.75326832 2.45858411 0 0 Z " fill="#F4F4F4" transform="translate(626,573)"/>
<path d="M0 0 C-0.69941596 3.14737182 -1.76078698 6.02588876 -3 9 C-4.175625 8.67 -5.35125 8.34 -6.5625 8 C-10.5011676 7.0030467 -13.95139129 6.83130797 -18 7 C-17.85741005 8.96116182 -17.85741005 8.96116182 -17 11 C-14.92402864 12.1467265 -14.92402864 12.1467265 -12.375 12.875 C-7.41633813 14.71760176 -3.17424197 16.61973904 0 21 C1.44695512 25.24340206 1.54050271 28.64874323 -0.125 32.8125 C-5.18041335 38.71048224 -5.18041335 38.71048224 -9.12207031 39.33764648 C-11.61354287 39.42983812 -14.07089249 39.39789401 -16.5625 39.3125 C-17.41263672 39.30283203 -18.26277344 39.29316406 -19.13867188 39.28320312 C-23.02302463 39.21313245 -26.19212326 38.95196919 -30 38 C-30 34.7 -30 31.4 -30 28 C-29.071875 28.33 -28.14375 28.66 -27.1875 29 C-22.19095127 30.45989695 -17.1566642 30.16784802 -12 30 C-11.96198719 27.60001895 -11.96198719 27.60001895 -13 25 C-15.32363003 23.59750208 -17.39707076 22.53370701 -19.875 21.5 C-24.62455655 19.49463168 -27.88042404 17.95843041 -30 13 C-30.87679145 8.82931633 -30.46814262 5.79757631 -28.3125 2.125 C-21.08224561 -4.51901755 -8.66397924 -3.30056352 0 0 Z " fill="#090909" transform="translate(391,719)"/>
<path d="M0 0 C0.75087891 -0.00773438 1.50175781 -0.01546875 2.27539062 -0.0234375 C6.48752924 -0.00861907 9.71753835 0.32369715 13.5625 2.25 C12.5725 5.22 11.5825 8.19 10.5625 11.25 C9.5725 10.92 8.5825 10.59 7.5625 10.25 C3.47655167 9.0634874 -0.20092394 9.10134821 -4.4375 9.25 C-4.4375 10.24 -4.4375 11.23 -4.4375 12.25 C-3.40109375 12.76949219 -2.3646875 13.28898438 -1.296875 13.82421875 C0.07322854 14.52803906 1.44300302 15.23250017 2.8125 15.9375 C3.49441406 16.27716797 4.17632813 16.61683594 4.87890625 16.96679688 C9.07528092 19.14646722 11.97298647 21.14611274 14.5625 25.25 C15.22058431 30.42066246 14.50393535 33.93589482 11.5625 38.25 C6.49598548 41.54478858 2.26457607 41.65209334 -3.5625 41.5 C-4.36042969 41.49484375 -5.15835938 41.4896875 -5.98046875 41.484375 C-9.74612291 41.43408246 -12.73498689 41.17562828 -16.4375 40.25 C-16.4375 36.95 -16.4375 33.65 -16.4375 30.25 C-15.509375 30.58 -14.58125 30.91 -13.625 31.25 C-8.62845127 32.70989695 -3.5941642 32.41784802 1.5625 32.25 C1.5625 30.93 1.5625 29.61 1.5625 28.25 C0.68207031 27.81429687 -0.19835937 27.37859375 -1.10546875 26.9296875 C-13.50521902 20.57154696 -13.50521902 20.57154696 -16.4375 15.25 C-17.32504962 11.09166568 -16.93426918 8.0661208 -14.6875 4.375 C-10.11550117 0.0570011 -6.13360006 -0.062855 0 0 Z " fill="#080808" transform="translate(868.4375,716.75)"/>
<path d="M0 0 C3.40563431 2.17380913 4.71751983 3.15255949 6 7 C6.14880933 9.78445155 6.23107 12.52742385 6.25 15.3125 C6.270625 16.05951172 6.29125 16.80652344 6.3125 17.57617188 C6.3467609 22.45406715 5.72603121 25.78993778 3 30 C-1.2340218 32.8226812 -5.02817503 32.785025 -10 32 C-13.61666344 29.34285951 -15.26015238 27.35850825 -16 23 C-16.14545324 20.33988405 -16.23059952 17.72279074 -16.25 15.0625 C-16.270625 14.35931641 -16.29125 13.65613281 -16.3125 12.93164062 C-16.34643912 8.40501105 -15.76375815 5.60287508 -13 2 C-8.81924645 -1.58350304 -5.07335351 -1.52713065 0 0 Z " fill="#191919" transform="translate(343,465)"/>
<path d="M0 0 C2.99452434 2.24589325 3.81623122 3.44869367 5 7 C5.12248619 9.63772577 5.18512384 12.23745795 5.1875 14.875 C5.19974609 15.58269531 5.21199219 16.29039062 5.22460938 17.01953125 C5.2360575 21.11795964 5.04154971 24.4063573 3 28 C0.84621907 30.12593032 -0.44473174 30.909235 -3.4375 31.3984375 C-4.283125 31.39070313 -5.12875 31.38296875 -6 31.375 C-7.2684375 31.38660156 -7.2684375 31.38660156 -8.5625 31.3984375 C-11.52304167 30.9145028 -12.8630758 30.08964712 -15 28 C-18.05360173 21.08618476 -18.40020569 11.00958202 -15.8125 3.9375 C-14 1 -14 1 -11.875 -0.5 C-7.76289748 -1.21514826 -4.0448381 -1.05846231 0 0 Z " fill="#0B0B0B" transform="translate(531,261)"/>
<path d="M0 0 C2.8100346 1.79363911 4.50940468 3.01880935 6 6 C6.08426094 7.6674606 6.10725143 9.33825187 6.09765625 11.0078125 C6.09443359 11.99394531 6.09121094 12.98007812 6.08789062 13.99609375 C6.07951172 15.02863281 6.07113281 16.06117188 6.0625 17.125 C6.05798828 18.16527344 6.05347656 19.20554687 6.04882812 20.27734375 C6.03701952 22.85161962 6.02055075 25.42578146 6 28 C4.02 28.99 4.02 28.99 2 30 C2 30.66 2 31.32 2 32 C0.08458862 32.10841951 -1.83259773 32.18578079 -3.75 32.25 C-4.81734375 32.29640625 -5.8846875 32.3428125 -6.984375 32.390625 C-10 32 -10 32 -12.328125 30.171875 C-15.5517201 25.98421408 -15.18323409 21.67584056 -15.1875 16.625 C-15.19974609 15.86960937 -15.21199219 15.11421875 -15.22460938 14.3359375 C-15.23564187 10.12888102 -15.04885498 6.79073865 -13 3 C-9.08034696 -0.34323348 -4.96361563 -0.93255809 0 0 Z " fill="#0C0C0C" transform="translate(500,260)"/>
<path d="M0 0 C5.5 3 5.5 3 7 6 C7.29125335 9.26404619 7.27787486 12.53696174 7.3125 15.8125 C7.34150391 16.71548828 7.37050781 17.61847656 7.40039062 18.54882812 C7.44177469 22.88142182 7.42240548 25.3145709 5.10546875 29.07421875 C1.36509749 32.49537465 -1.67276234 32.32838916 -6.58203125 32.29296875 C-9 32 -9 32 -11.5625 30.125 C-14.71503108 25.46473667 -14.33061352 21.19031102 -14.4375 15.6875 C-14.48326172 14.73681641 -14.52902344 13.78613281 -14.57617188 12.80664062 C-14.6857964 5.98608838 -14.6857964 5.98608838 -12.77392578 3.23706055 C-8.67519107 -0.38239184 -5.17460144 -1.14191006 0 0 Z " fill="#191919" transform="translate(336,422)"/>
<path d="M0 0 C3.58552881 1.63687185 4.79315055 2.68972583 7 6 C7.42918667 9.27707868 7.32424322 12.57280549 7.3125 15.875 C7.32861328 16.77347656 7.34472656 17.67195313 7.36132812 18.59765625 C7.36496294 23.51919884 7.28756751 27.04851983 4 31 C0.0696314 32.9651843 -4.7147185 32.46909886 -9 32 C-12.16620095 29.81381363 -12.7896387 28.63108389 -14 25 C-14.24874332 22.04598464 -14.23115464 19.08843233 -14.25 16.125 C-14.270625 15.32191406 -14.29125 14.51882813 -14.3125 13.69140625 C-14.34364082 8.96578619 -14.10338918 5.81397829 -11 2 C-7.29361264 -0.47092491 -4.29830496 -0.55407837 0 0 Z " fill="#0F0F0F" transform="translate(346,337)"/>
<path d="M0 0 C3.58552881 1.63687185 4.79315055 2.68972583 7 6 C7.45386875 9.27624582 7.37029957 12.57059929 7.375 15.875 C7.39949219 16.77347656 7.42398437 17.67195312 7.44921875 18.59765625 C7.46832921 22.91024945 7.41242403 25.33299324 5.1015625 29.0703125 C2.09355771 31.83230946 0.19805591 32.23907669 -3.8125 32.4375 C-5.09060547 32.52837891 -5.09060547 32.52837891 -6.39453125 32.62109375 C-9.54737157 31.86951712 -11.09648964 30.49726139 -13.03393555 27.91870117 C-14.88977961 24.2328082 -14.63753615 20.47918743 -14.5 16.4375 C-14.50257813 15.60025391 -14.50515625 14.76300781 -14.5078125 13.90039062 C-14.43264915 9.15382504 -14.10587193 5.81641339 -11 2 C-7.29361264 -0.47092491 -4.29830496 -0.55407837 0 0 Z " fill="#0D0D0D" transform="translate(341,550)"/>
<path d="M0 0 C5.5 3 5.5 3 7 6 C7.26518877 9.26463453 7.23154074 12.53828887 7.25 15.8125 C7.270625 16.71548828 7.29125 17.61847656 7.3125 18.54882812 C7.34156126 23.49287548 7.31645743 27.0315206 4 31 C0.30009772 32.84995114 -3.96167141 32.46986842 -8 32 C-11.55680172 29.89495409 -12.69468936 28.91593192 -14 25 C-14.2754023 21.87978687 -14.27724036 18.75605603 -14.3125 15.625 C-14.34150391 14.77421875 -14.37050781 13.9234375 -14.40039062 13.046875 C-14.4429657 8.84176777 -14.37759554 6.60570996 -12.10546875 2.9609375 C-8.43232413 -0.46006176 -4.86353568 -0.6767443 0 0 Z " fill="#171717" transform="translate(576,260)"/>
<path d="M0 0 C5.66176471 2.98529412 5.66176471 2.98529412 7 7 C7.27353832 9.93270806 7.27719904 12.8683996 7.3125 15.8125 C7.34150391 16.60720703 7.37050781 17.40191406 7.40039062 18.22070312 C7.45863415 23.63735065 6.62556511 26.71524123 3 31 C0.67404054 32.16297973 -0.78723231 32.16600691 -3.375 32.1875 C-4.14585937 32.20167969 -4.91671875 32.21585937 -5.7109375 32.23046875 C-8.31749827 31.96803345 -9.82811477 31.46486727 -12 30 C-14.83427598 25.41048071 -14.33025048 20.73284011 -14.3125 15.5 C-14.32861328 14.54996094 -14.34472656 13.59992188 -14.36132812 12.62109375 C-14.36229492 11.24630859 -14.36229492 11.24630859 -14.36328125 9.84375 C-14.36626221 9.01037109 -14.36924316 8.17699219 -14.37231445 7.31835938 C-13.91184546 4.4510718 -12.98389083 3.09706483 -11 1 C-7.27546118 -0.24151294 -3.86862054 -0.54014702 0 0 Z " fill="#151515" transform="translate(580,305)"/>
<path d="M0 0 C3.13552164 4.13888856 2.71101555 7.92868742 2.6875 12.9375 C2.69330078 14.16146484 2.69330078 14.16146484 2.69921875 15.41015625 C2.69792969 16.20035156 2.69664062 16.99054687 2.6953125 17.8046875 C2.69418457 18.5251123 2.69305664 19.24553711 2.69189453 19.98779297 C2.48608264 23.28777314 2.21837571 25.40811153 -0.16015625 27.78125 C-2.90344956 29.32464658 -4.73787985 29.52769145 -7.875 29.5625 C-8.80183594 29.5934375 -9.72867187 29.624375 -10.68359375 29.65625 C-14.71490737 28.78708735 -16.05894474 27.4222093 -18.4375 24.0625 C-19.13107294 20.72814344 -19.0914605 17.51892617 -19 14.125 C-19.01095703 13.24392578 -19.02191406 12.36285156 -19.03320312 11.45507812 C-18.96877376 5.72086442 -18.18420326 2.45129365 -14.4375 -1.9375 C-10.04859709 -4.28869799 -3.71436712 -2.95244566 0 0 Z " fill="#0A0A0A" transform="translate(362.4375,509.9375)"/>
<path d="M0 0 C2.74863374 1.19505815 4.36732797 2.11869895 6.11328125 4.55078125 C7.47456374 8.3107994 7.32843323 11.970126 7.3125 15.9375 C7.32861328 16.73607422 7.34472656 17.53464844 7.36132812 18.35742188 C7.36522161 23.05685887 7.0734712 26.20674632 4 30 C0.87065289 32.08623141 -0.24354287 32.36754564 -3.875 32.5 C-4.71804688 32.5515625 -5.56109375 32.603125 -6.4296875 32.65625 C-9.53031145 31.86460133 -11.11000334 30.49441006 -13.02734375 27.94775391 C-14.94232021 24.11299432 -14.67615827 20.13671239 -14.5625 15.9375 C-14.57345703 15.05255859 -14.58441406 14.16761719 -14.59570312 13.25585938 C-14.54786648 9.00477601 -14.38166171 6.61112703 -12.08984375 2.94140625 C-8.39086751 -0.49483897 -4.87598686 -0.5240984 0 0 Z " fill="#111111" transform="translate(513,305)"/>
<path d="M0 0 C3.11527603 0.46451442 5.03571639 1.28174012 7.41015625 3.359375 C10.06062218 7.15244461 9.74164142 11.35054935 9.72265625 15.796875 C9.73876953 16.54775391 9.75488281 17.29863281 9.77148438 18.07226562 C9.77641947 23.68347232 8.62215706 26.98352228 4.72265625 31.171875 C1.32371951 32.91727495 -1.89757184 33.03336114 -5.58984375 32.359375 C-9.03297089 30.2348923 -10.30601922 29.21084859 -11.58984375 25.359375 C-11.86725592 22.07251912 -11.86716641 18.78166474 -11.90234375 15.484375 C-11.93134766 14.58589844 -11.96035156 13.68742187 -11.99023438 12.76171875 C-12.03062502 8.55487732 -11.94202334 5.99780101 -9.87890625 2.2578125 C-6.50117464 -0.5435144 -4.22201159 -0.22384745 0 0 Z " fill="#0D0D0D" transform="translate(357.58984375,379.640625)"/>
<path d="M0 0 C2.91927604 1.3961755 4.72202996 2.72202996 7 5 C7.47820036 8.41611873 7.37038406 11.86670322 7.375 15.3125 C7.39949219 16.26318359 7.42398437 17.21386719 7.44921875 18.19335938 C7.46783105 22.63239297 7.4568858 25.25262508 5.1015625 29.10546875 C1.57303321 32.28639199 -1.12165963 32.39263962 -5.73828125 32.35546875 C-9.35701199 31.78672178 -10.88030223 29.84834388 -13 27 C-14.21347754 23.35956737 -14.2224972 19.97944814 -14.25 16.1875 C-14.270625 15.48818359 -14.29125 14.78886719 -14.3125 14.06835938 C-14.34834346 9.27877704 -13.58197592 6.03584554 -11 2 C-7.29764538 -0.46823641 -4.29521348 -0.56206895 0 0 Z " fill="#0E0E0E" transform="translate(437,550)"/>
<path d="M0 0 C2.19070067 2.06551778 3.09521591 2.97900088 3.34863281 5.9543457 C3.39411395 8.4280435 3.42278427 10.90091872 3.4375 13.375 C3.458125 14.23029297 3.47875 15.08558594 3.5 15.96679688 C3.53007701 20.82047418 3.38835444 24.14261304 0.1875 28.0625 C-3.67735937 30.56329136 -7.38879378 30.22676915 -11.7890625 29.60546875 C-13.8125 29.0625 -13.8125 29.0625 -15.8125 27.25 C-17.92719284 22.62410942 -18.0258004 18.15743321 -18.0625 13.125 C-18.083125 12.42181641 -18.10375 11.71863281 -18.125 10.99414062 C-18.15898467 6.46143568 -17.55779344 3.68069014 -14.8125 0.0625 C-10.3862696 -4.3637304 -4.90922857 -3.38191301 0 0 Z " fill="#171717" transform="translate(455.8125,509.9375)"/>
<path d="M0 0 C2.97 0 5.94 0 9 0 C9.66 1.98 10.32 3.96 11 6 C11.94875 5.195625 12.8975 4.39125 13.875 3.5625 C18.38712054 -0.2629935 21.16375665 -0.09413296 27 0 C26.67 3.3 26.34 6.6 26 10 C24.73542969 10.22042969 24.73542969 10.22042969 23.4453125 10.4453125 C22.34960938 10.66960938 21.25390625 10.89390625 20.125 11.125 C19.03445313 11.33382812 17.94390625 11.54265625 16.8203125 11.7578125 C13.83005621 12.73671065 13.83005621 12.73671065 12.65625 15.40625 C11.74555141 20.39340896 11.53171731 25.31433685 11.375 30.375 C11.31699219 31.90833984 11.31699219 31.90833984 11.2578125 33.47265625 C11.16402434 35.98148965 11.08094454 38.49071938 11 41 C7.37 41 3.74 41 0 41 C0 27.47 0 13.94 0 0 Z " fill="#040404" transform="translate(822,717)"/>
<path d="M0 0 C7.54610831 -0.40994955 12.43304589 0.2008991 18.9375 4.1875 C20.77835855 7.32778811 20.56375224 10.52779871 20 14 C17.57108194 19.63508989 14.11164033 23.56286254 9 27 C8.34 27 7.68 27 7 27 C6.67 27.66 6.34 28.32 6 29 C5.938125 28.443125 5.87625 27.88625 5.8125 27.3125 C5.10329952 24.76072076 5.10329952 24.76072076 2.625 22.625 C-0.18803072 19.81196928 -1.65436566 17.73787318 -3 14 C-2.9375 10.3125 -2.9375 10.3125 -2 7 C0.0625 5.0625 0.0625 5.0625 2 4 C1.34 3.34 0.68 2.68 0 2 C0 1.34 0 0.68 0 0 Z " fill="#0C0C0C" transform="translate(458,418)"/>
<path d="M0 0 C2.125 0.375 2.125 0.375 4 1 C3.835 1.639375 3.67 2.27875 3.5 2.9375 C2.56752367 8.64891753 2.05600155 13.20965811 4.8125 18.4375 C7.18545397 21.21724608 8.82097648 22.80318663 12.48046875 23.4140625 C13.37378906 23.48367188 14.26710938 23.55328125 15.1875 23.625 C16.08855469 23.69976562 16.98960937 23.77453125 17.91796875 23.8515625 C18.60503906 23.90054687 19.29210937 23.94953125 20 24 C17.25 29.875 17.25 29.875 15 31 C7.59268046 31.77238717 1.33730862 31.07116084 -5 27 C-9.24907175 22.75092825 -9.87926034 19.90164958 -10.25 14.0625 C-10.18640528 10.26094924 -9.48052738 7.99373995 -7 5 C-4.4375 3.3125 -4.4375 3.3125 -2 2 C-1.34 1.34 -0.68 0.68 0 0 Z " fill="#090909" transform="translate(446,451)"/>
<path d="M0 0 C3.07360074 -0.35464624 5.93442115 -0.47487452 9 0 C12.30398852 2.90106309 12.81841779 4.58365877 13.37109375 8.89453125 C13.55998123 13.53658426 13.49967967 16.98065347 11.4375 21.1875 C8.16892958 23.61797544 6.06768523 24.14527447 2 24 C-0.90754104 21.85760134 -1.77605067 19.99001047 -2.56640625 16.49609375 C-3.40933183 10.11647803 -2.73475956 5.79769027 0 0 Z " fill="#F7F7F7" transform="translate(512,726)"/>
<path d="M0 0 C3.31994012 1.10664671 3.83687415 1.74536163 5.84765625 4.45703125 C6.37037109 5.15763672 6.89308594 5.85824219 7.43164062 6.58007812 C7.96982422 7.31677734 8.50800781 8.05347656 9.0625 8.8125 C9.60455078 9.53759766 10.14660156 10.26269531 10.70507812 11.00976562 C13.10598936 14.25351839 15.27253012 17.34036446 17 21 C12.34705139 23.79176917 8.34595106 25.15012493 3 24 C-0.82125498 21.87895098 -3.34320238 19.03329013 -5 15 C-5.66196386 11.16757763 -5.88368141 7.51180338 -3.87890625 4.08203125 C-2.5 2.4375 -2.5 2.4375 0 0 Z " fill="#F8F8F8" transform="translate(453,451)"/>
<path d="M0 0 C3.5625 0.5 3.5625 0.5 5.76171875 2.09375 C8.19537737 5.34566693 8.03124187 7.47762166 7.9375 11.5 C7.92460938 12.716875 7.91171875 13.93375 7.8984375 15.1875 C7.58968343 18.23195877 7.26063607 19.9949482 5.5625 22.5 C2.44372044 24.05938978 -0.01005771 23.8607834 -3.4375 23.5 C-6.60328341 19.62100561 -6.84398048 16.34320796 -6.8125 11.4375 C-6.82023438 10.22964844 -6.82796875 9.02179687 -6.8359375 7.77734375 C-6.222925 2.73501547 -5.1100931 0.74328627 0 0 Z " fill="#FAFAFA" transform="translate(754.4375,725.5)"/>
<path d="M0 0 C2.875 0.9375 2.875 0.9375 4.875 3.9375 C5.13378906 5.8828125 5.13378906 5.8828125 5.140625 8.0625 C5.14320313 8.85140625 5.14578125 9.6403125 5.1484375 10.453125 C5.14070313 11.27296875 5.13296875 12.0928125 5.125 12.9375 C5.13273437 13.75734375 5.14046875 14.5771875 5.1484375 15.421875 C5.14585937 16.21078125 5.14328125 16.9996875 5.140625 17.8125 C5.13836914 18.53179687 5.13611328 19.25109375 5.13378906 19.9921875 C4.875 21.9375 4.875 21.9375 2.875 24.9375 C1 25.3359375 1 25.3359375 -1.125 25.3125 C-1.82625 25.32023437 -2.5275 25.32796875 -3.25 25.3359375 C-5.125 24.9375 -5.125 24.9375 -7.125 21.9375 C-7.57134955 18.97321385 -7.4952657 15.99444661 -7.5 13 C-7.52449219 12.18853516 -7.54898437 11.37707031 -7.57421875 10.54101562 C-7.59332225 6.65982071 -7.59342203 4.59609337 -5.296875 1.3671875 C-3.125 -0.0625 -3.125 -0.0625 0 0 Z " fill="#F6F6F6" transform="translate(339.125,468.0625)"/>
<path d="M0 0 C3 0.5 3 0.5 4.6640625 2.03515625 C6.51956657 5.45861552 6.43724624 8.64393756 6.375 12.4375 C6.38660156 13.14068359 6.39820313 13.84386719 6.41015625 14.56835938 C6.38489651 19.06038258 5.67414326 21.88495448 3 25.5 C0.69 25.17 -1.62 24.84 -4 24.5 C-6.05921834 20.24209436 -6.29848842 16.64071936 -6.3125 11.9375 C-6.33763672 9.98650391 -6.33763672 9.98650391 -6.36328125 7.99609375 C-5.86266866 3.17837044 -4.9316563 0.82194272 0 0 Z " fill="#F6F6F6" transform="translate(525,263.5)"/>
<path d="M0 0 C3.55208549 3.55208549 3.18262366 7.58078902 3.25 12.4375 C3.28867187 14.10619141 3.28867187 14.10619141 3.328125 15.80859375 C2.96420246 19.34817367 2.14664791 21.18891345 0 24 C-2.5 24.9375 -2.5 24.9375 -5 25 C-8 23 -8 23 -9 20 C-9.14802747 17.15331788 -9.23098704 14.34719043 -9.25 11.5 C-9.270625 10.72785156 -9.29125 9.95570313 -9.3125 9.16015625 C-9.35203803 3.45679585 -9.35203803 3.45679585 -7.67089844 1.27539062 C-5.13210323 -0.66246241 -3.09084042 -0.32881281 0 0 Z " fill="#F4F4F4" transform="translate(499,264)"/>
<path d="M0 0 C3.6875 -0.3125 3.6875 -0.3125 7 0 C9.47250024 3.78262984 9.33226071 7.63683606 9.3125 12 C9.32861328 12.7115625 9.34472656 13.423125 9.36132812 14.15625 C9.36430172 17.34394811 9.18721287 19.64772963 7.6796875 22.484375 C6 24 6 24 2.8125 24.25 C1.884375 24.1675 0.95625 24.085 0 24 C-3.93446057 18.26224501 -3.86323418 11.76200105 -3 5 C-1.70703125 2.1171875 -1.70703125 2.1171875 0 0 Z " fill="#F5F5F5" transform="translate(353,384)"/>
<path d="M0 0 C3.5 -0.3125 3.5 -0.3125 7 0 C10.29071684 3.29071684 9.36876156 7.46765505 9.375 11.9375 C9.39949219 12.85724609 9.42398437 13.77699219 9.44921875 14.72460938 C9.45308594 15.60826172 9.45695312 16.49191406 9.4609375 17.40234375 C9.46915527 18.21179443 9.47737305 19.02124512 9.48583984 19.85522461 C9 22 9 22 7.13525391 23.79907227 C5 25 5 25 2.375 24.8125 C0 24 0 24 -2 22 C-2.25878906 20.07641602 -2.25878906 20.07641602 -2.265625 17.75390625 C-2.26820313 16.91666016 -2.27078125 16.07941406 -2.2734375 15.21679688 C-2.26570313 14.34087891 -2.25796875 13.46496094 -2.25 12.5625 C-2.25773437 11.69044922 -2.26546875 10.81839844 -2.2734375 9.91992188 C-2.27085937 9.08138672 -2.26828125 8.24285156 -2.265625 7.37890625 C-2.26336914 6.6113501 -2.26111328 5.84379395 -2.25878906 5.05297852 C-2 3 -2 3 0 0 Z " fill="#F7F7F7" transform="translate(430,554)"/>
<path d="M0 0 C3.5 -0.3125 3.5 -0.3125 7 0 C10.29071684 3.29071684 9.36876156 7.46765505 9.375 11.9375 C9.39949219 12.85724609 9.42398437 13.77699219 9.44921875 14.72460938 C9.45308594 15.60826172 9.45695312 16.49191406 9.4609375 17.40234375 C9.46915527 18.21179443 9.47737305 19.02124512 9.48583984 19.85522461 C9 22 9 22 7.13525391 23.79907227 C5 25 5 25 2.375 24.8125 C0 24 0 24 -2 22 C-2.25878906 20.07641602 -2.25878906 20.07641602 -2.265625 17.75390625 C-2.26820313 16.91666016 -2.27078125 16.07941406 -2.2734375 15.21679688 C-2.26570313 14.34087891 -2.25796875 13.46496094 -2.25 12.5625 C-2.25773437 11.69044922 -2.26546875 10.81839844 -2.2734375 9.91992188 C-2.27085937 9.08138672 -2.26828125 8.24285156 -2.265625 7.37890625 C-2.26336914 6.6113501 -2.26111328 5.84379395 -2.25878906 5.05297852 C-2 3 -2 3 0 0 Z " fill="#F8F8F8" transform="translate(334,554)"/>
<path d="M0 0 C3.0625 0.3125 3.0625 0.3125 4.72680664 1.56054688 C7.22674253 4.83957081 6.53245637 8.84102107 6.5 12.8125 C6.51998047 13.68003906 6.53996094 14.54757812 6.56054688 15.44140625 C6.55567586 21.74450473 6.55567586 21.74450473 4.234375 24.41796875 C1.18267306 25.67487476 -0.81345685 25.21500135 -3.9375 24.3125 C-5.76421197 20.65907606 -5.12220722 16.33410841 -5.125 12.3125 C-5.13724609 11.384375 -5.14949219 10.45625 -5.16210938 9.5 C-5.16404297 8.613125 -5.16597656 7.72625 -5.16796875 6.8125 C-5.17207764 5.9978125 -5.17618652 5.183125 -5.18041992 4.34375 C-4.75976878 0.8263455 -3.35505863 0.35692113 0 0 Z " fill="#F9F9F9" transform="translate(331.9375,425.6875)"/>
<path d="M0 0 C3.5 -0.375 3.5 -0.375 7 0 C9.78095904 4.17143856 9.33070347 7.59962668 9.3125 12.5 C9.32861328 13.36753906 9.34472656 14.23507812 9.36132812 15.12890625 C9.36197266 15.96292969 9.36261719 16.79695313 9.36328125 17.65625 C9.36775269 18.79803711 9.36775269 18.79803711 9.37231445 19.96289062 C8.9011482 22.54086521 8.05585491 23.41947128 6 25 C3.5 25.4375 3.5 25.4375 1 25 C-1.01781416 23.19889619 -1.90058143 21.72442515 -2.27001953 19.0324707 C-2.36812032 16.66033194 -2.35963288 14.31111173 -2.3125 11.9375 C-2.31572266 11.12216797 -2.31894531 10.30683594 -2.32226562 9.46679688 C-2.26744065 3.40116097 -2.26744065 3.40116097 0 0 Z " fill="#FAFAFA" transform="translate(339,341)"/>
<path d="M0 0 C1.670625 0.4021875 1.670625 0.4021875 3.375 0.8125 C5.13982638 4.34215276 4.64458055 8.36149776 4.6875 12.25 C4.71650391 13.12205078 4.74550781 13.99410156 4.77539062 14.89257812 C4.83926278 21.28470653 4.83926278 21.28470653 2.51953125 23.921875 C-0.29045369 25.08886328 -1.77437281 24.78771457 -4.625 23.8125 C-7.4449387 20.9925613 -6.91462838 18.88345841 -6.94726562 15.02929688 C-6.94243164 13.71541992 -6.94243164 13.71541992 -6.9375 12.375 C-6.95361328 11.50294922 -6.96972656 10.63089844 -6.98632812 9.73242188 C-6.98697266 8.89388672 -6.98761719 8.05535156 -6.98828125 7.19140625 C-6.99126221 6.4238501 -6.99424316 5.65629395 -6.99731445 4.86547852 C-6.19956143 0.46658988 -4.25236634 -0.21994998 0 0 Z " fill="#F8F8F8" transform="translate(355.625,511.1875)"/>
<path d="M0 0 C3.0625 0.3125 3.0625 0.3125 4.73120117 1.57421875 C6.36063745 3.70177905 6.43678544 4.78221889 6.42578125 7.4375 C6.42513672 8.22640625 6.42449219 9.0153125 6.42382812 9.828125 C6.40771484 10.64796875 6.39160156 11.4678125 6.375 12.3125 C6.37822266 13.13234375 6.38144531 13.9521875 6.38476562 14.796875 C6.32981366 20.9115295 6.32981366 20.9115295 4.0625 24.3125 C0.5625 24.625 0.5625 24.625 -2.9375 24.3125 C-5.38736932 21.86263068 -5.19381311 21.175422 -5.203125 17.8125 C-5.20570313 16.925625 -5.20828125 16.03875 -5.2109375 15.125 C-5.19933594 13.7328125 -5.19933594 13.7328125 -5.1875 12.3125 C-5.19523438 11.384375 -5.20296875 10.45625 -5.2109375 9.5 C-5.20835937 8.613125 -5.20578125 7.72625 -5.203125 6.8125 C-5.20086914 5.9978125 -5.19861328 5.183125 -5.19628906 4.34375 C-4.74881343 0.83148843 -3.35947956 0.35739144 0 0 Z " fill="#F9F9F9" transform="translate(575.9375,308.6875)"/>
<path d="M0 0 C3.0625 0.3125 3.0625 0.3125 4.73120117 1.57421875 C6.36063745 3.70177905 6.43678544 4.78221889 6.42578125 7.4375 C6.42513672 8.22640625 6.42449219 9.0153125 6.42382812 9.828125 C6.40771484 10.64796875 6.39160156 11.4678125 6.375 12.3125 C6.37822266 13.13234375 6.38144531 13.9521875 6.38476562 14.796875 C6.32981366 20.9115295 6.32981366 20.9115295 4.0625 24.3125 C0.5625 24.625 0.5625 24.625 -2.9375 24.3125 C-5.38736932 21.86263068 -5.19381311 21.175422 -5.203125 17.8125 C-5.20570313 16.925625 -5.20828125 16.03875 -5.2109375 15.125 C-5.19933594 13.7328125 -5.19933594 13.7328125 -5.1875 12.3125 C-5.19523437 11.384375 -5.20296875 10.45625 -5.2109375 9.5 C-5.20835937 8.613125 -5.20578125 7.72625 -5.203125 6.8125 C-5.20086914 5.9978125 -5.19861328 5.183125 -5.19628906 4.34375 C-4.74881343 0.83148843 -3.35947956 0.35739144 0 0 Z " fill="#FAFAFA" transform="translate(508.9375,308.6875)"/>
<path d="M0 0 C0.7425 0.2475 1.485 0.495 2.25 0.75 C2.25 1.41 2.25 2.07 2.25 2.75 C2.91 2.75 3.57 2.75 4.25 2.75 C4.30807043 5.85408807 4.34361914 8.9580364 4.375 12.0625 C4.39175781 12.94357422 4.40851563 13.82464844 4.42578125 14.73242188 C4.43222656 15.57998047 4.43867188 16.42753906 4.4453125 17.30078125 C4.45578613 18.08106689 4.46625977 18.86135254 4.47705078 19.6652832 C4.25 21.75 4.25 21.75 2.25 24.75 C-0.82921132 25.00660094 -2.96136993 25.14431504 -5.75 23.75 C-7.02346955 19.92959134 -7.01233806 16.29535774 -7.0625 12.3125 C-7.09150391 11.54873047 -7.12050781 10.78496094 -7.15039062 9.99804688 C-7.19332142 6.20362524 -7.18222374 4.34670635 -4.90234375 1.19921875 C-2.75 -0.25 -2.75 -0.25 0 0 Z " fill="#F8F8F8" transform="translate(449.75,511.25)"/>
<path d="M0 0 C0.99 0.66 1.98 1.32 3 2 C3.37231445 4.03125 3.37231445 4.03125 3.36328125 6.5 C3.36263672 7.386875 3.36199219 8.27375 3.36132812 9.1875 C3.34521484 10.115625 3.32910156 11.04375 3.3125 12 C3.31572266 12.928125 3.31894531 13.85625 3.32226562 14.8125 C3.26694139 21.73305861 3.26694139 21.73305861 1 24 C-2.5 24.3125 -2.5 24.3125 -6 24 C-8.71382083 19.92926875 -8.33127641 16.77671888 -8.3125 12 C-8.32861328 11.18015625 -8.34472656 10.3603125 -8.36132812 9.515625 C-8.36197266 8.72671875 -8.36261719 7.9378125 -8.36328125 7.125 C-8.36626221 6.40570313 -8.36924316 5.68640625 -8.37231445 4.9453125 C-7.47351953 0.24918268 -4.32352815 -0.54044102 0 0 Z " fill="#FAFAFA" transform="translate(575,264)"/>
<path d="M0 0 C4.35093583 1.51336898 4.35093583 1.51336898 5.875 4 C7.58623375 10.41712658 7.58623375 10.41712658 5.95703125 14.04296875 C2.84101331 18.69302629 2.84101331 18.69302629 -0.30078125 19.69140625 C-0.90277344 19.79324219 -1.50476563 19.89507812 -2.125 20 C-6.22724744 14.95108007 -8.33836379 11.61427745 -8.125 5 C-5.65590688 1.33377081 -4.4916042 0 0 0 Z " fill="#F4F4F4" transform="translate(463.125,422)"/>
<path d="M0 0 C0 10.56 0 21.12 0 32 C-1.65 32 -3.3 32 -5 32 C-5.33 23.75 -5.66 15.5 -6 7 C-8.475 8.485 -8.475 8.485 -11 10 C-11.375 7.8125 -11.375 7.8125 -11 5 C-7.06508741 0.88206822 -5.84170321 0 0 0 Z " fill="#080808" transform="translate(365,550)"/>
<path d="M0 0 C0 10.56 0 21.12 0 32 C-1.65 32 -3.3 32 -5 32 C-5 23.75 -5 15.5 -5 7 C-6.32 7.33 -7.64 7.66 -9 8 C-9 8.66 -9 9.32 -9 10 C-9.66 10 -10.32 10 -11 10 C-11.375 7.8125 -11.375 7.8125 -11 5 C-7.06508741 0.88206822 -5.84170321 0 0 0 Z " fill="#050505" transform="translate(537,305)"/>
<path d="M0 0 C0 10.56 0 21.12 0 32 C-1.65 32 -3.3 32 -5 32 C-5.33 24.41 -5.66 16.82 -6 9 C-7.65 9.33 -9.3 9.66 -11 10 C-10.77771136 6.10994871 -10.01244362 5.01244362 -7.1875 2.1875 C-4 0 -4 0 0 0 Z " fill="#040404" transform="translate(369,337)"/>
<path d="M0 0 C0 10.56 0 21.12 0 32 C-1.65 32 -3.3 32 -5 32 C-5 23.75 -5 15.5 -5 7 C-6.65 7.33 -8.3 7.66 -10 8 C-10.33 8.66 -10.66 9.32 -11 10 C-11.375 7.8125 -11.375 7.8125 -11 5 C-7.06508741 0.88206822 -5.84170321 0 0 0 Z " fill="#030303" transform="translate(490,305)"/>
<path d="M0 0 C0 10.56 0 21.12 0 32 C-1.65 32 -3.3 32 -5 32 C-5 23.75 -5 15.5 -5 7 C-6.98 7.99 -8.96 8.98 -11 10 C-11.4375 7.8125 -11.4375 7.8125 -11 5 C-7.55126388 1.48475933 -4.96365383 0 0 0 Z " fill="#0B0B0B" transform="translate(604,305)"/>
<path d="M0 0 C0 10.56 0 21.12 0 32 C-1.65 32 -3.3 32 -5 32 C-5 23.75 -5 15.5 -5 7 C-6.32 7.99 -7.64 8.98 -9 10 C-9.66 10 -10.32 10 -11 10 C-10.77771136 6.10994871 -10.01244362 5.01244362 -7.1875 2.1875 C-4 0 -4 0 0 0 Z " fill="#010101" transform="translate(557,305)"/>
<path d="M0 0 C0 10.23 0 20.46 0 31 C-1.65 31 -3.3 31 -5 31 C-5 22.75 -5 14.5 -5 6 C-5.99 6.66 -6.98 7.32 -8 8 C-8.99 8 -9.98 8 -11 8 C-11 4 -11 4 -8.875 1.75 C-6 0 -6 0 0 0 Z " fill="#020202" transform="translate(600,261)"/>
<path d="M0 0 C0 10.23 0 20.46 0 31 C-1.65 31 -3.3 31 -5 31 C-5 22.75 -5 14.5 -5 6 C-6.32 6.99 -7.64 7.98 -9 9 C-9.66 9 -10.32 9 -11 9 C-10.67 7.35 -10.34 5.7 -10 4 C-9.01 3.67 -8.02 3.34 -7 3 C-7 2.34 -7 1.68 -7 1 C-5 0 -5 0 0 0 Z " fill="#030303" transform="translate(335,508)"/>
<path d="M0 0 C0 10.23 0 20.46 0 31 C-1.65 31 -3.3 31 -5 31 C-5 23.08 -5 15.16 -5 7 C-6.98 7.99 -8.96 8.98 -11 10 C-11.4375 7.8125 -11.4375 7.8125 -11 5 C-7.55126388 1.48475933 -4.96365383 0 0 0 Z " fill="#020202" transform="translate(337,380)"/>
<path d="M0 0 C0 10.23 0 20.46 0 31 C-1.65 31 -3.3 31 -5 31 C-5.33 23.08 -5.66 15.16 -6 7 C-7.65 7.66 -9.3 8.32 -11 9 C-11 5 -11 5 -8.3125 2.25 C-5.23221131 -0.39252156 -4.60205649 0 0 0 Z " fill="#000000" transform="translate(365,465)"/>
<path d="M0 0 C2 2 2 2 2.22705078 4.24658203 C2.21657715 5.15778809 2.20610352 6.06899414 2.1953125 7.0078125 C2.18886719 7.99394531 2.18242187 8.98007812 2.17578125 9.99609375 C2.15902344 11.02863281 2.14226562 12.06117188 2.125 13.125 C2.11597656 14.16527344 2.10695313 15.20554687 2.09765625 16.27734375 C2.07403867 18.85165997 2.03816684 21.42585838 2 24 C5.63 24 9.26 24 13 24 C13.33 24.99 13.66 25.98 14 27 C9.36172748 29.5435688 4.99674606 29.34082568 0 28 C-2.64260124 25.60514262 -3.28185597 23.41009724 -4 20 C-4.06926968 17.24029592 -4.0941736 14.50803958 -4.0625 11.75 C-4.05798828 11.00492188 -4.05347656 10.25984375 -4.04882812 9.4921875 C-4.03709246 7.6614236 -4.0191585 5.83070127 -4 4 C-2.68 3.67 -1.36 3.34 0 3 C0 2.01 0 1.02 0 0 Z " fill="#0C0C0C" transform="translate(442,511)"/>
<path d="M0 0 C1.32 0 2.64 0 4 0 C4 10.56 4 21.12 4 32 C2.68 32 1.36 32 0 32 C0 23.75 0 15.5 0 7 C-2.475 8.485 -2.475 8.485 -5 10 C-5.66 10 -6.32 10 -7 10 C-6.65930765 6.84859577 -6.41923159 5.39218439 -4.0625 3.1875 C-2 2 -2 2 0 2 C0 1.34 0 0.68 0 0 Z " fill="#050505" transform="translate(355,422)"/>
<path d="M0 0 C0 10.23 0 20.46 0 31 C-1.32 31 -2.64 31 -4 31 C-4 22.75 -4 14.5 -4 6 C-6.475 7.485 -6.475 7.485 -9 9 C-9.66 9 -10.32 9 -11 9 C-10.71180351 5.54164207 -10.21034962 4.21619267 -7.75 1.6875 C-5 0 -5 0 0 0 Z " fill="#030303" transform="translate(553,261)"/>
<path d="M0 0 C0 10.23 0 20.46 0 31 C-1.32 31 -2.64 31 -4 31 C-4 22.75 -4 14.5 -4 6 C-6.475 7.485 -6.475 7.485 -9 9 C-9.66 9 -10.32 9 -11 9 C-11 5 -11 5 -8.3125 2.25 C-5.23221131 -0.39252156 -4.60205649 0 0 0 Z " fill="#030303" transform="translate(429,508)"/>
<path d="M0 0 C0.99 0.66 1.98 1.32 3 2 C2.67 2.66 2.34 3.32 2 4 C1.76419484 6.97352288 1.81482052 9.95563698 1.8125 12.9375 C1.80025391 13.76185547 1.78800781 14.58621094 1.77539062 15.43554688 C1.77345703 16.22896484 1.77152344 17.02238281 1.76953125 17.83984375 C1.76542236 18.56550537 1.76131348 19.29116699 1.75708008 20.03881836 C1.89117166 22.32232248 1.89117166 22.32232248 4 25 C7.06556598 25.73343428 7.06556598 25.73343428 10 26 C10 26.99 10 27.98 10 29 C2.79199579 29.48867825 2.79199579 29.48867825 -0.9375 27.1875 C-4.93166465 22.95126477 -4.25129357 17.99225741 -4.3125 12.5 C-4.34150391 11.63246094 -4.37050781 10.76492188 -4.40039062 9.87109375 C-4.46458128 3.48165487 -4.46458128 3.48165487 -1.98046875 0.90625 C-1.32691406 0.6071875 -0.67335938 0.308125 0 0 Z " fill="#060606" transform="translate(566,263)"/>
<path d="M0 0 C7.26 0 14.52 0 22 0 C22 1.32 22 2.64 22 4 C19.03 4 16.06 4 13 4 C12.87882812 4.69867188 12.75765625 5.39734375 12.6328125 6.1171875 C12.38144531 7.48230469 12.38144531 7.48230469 12.125 8.875 C11.96257812 9.77992188 11.80015625 10.68484375 11.6328125 11.6171875 C11 14 11 14 9 16 C7.40861915 11.82262526 6.78721942 8.46839215 7 4 C4.69 4 2.38 4 0 4 C0 2.68 0 1.36 0 0 Z " fill="#040404" transform="translate(477,444)"/>
<path d="M0 0 C0.90105469 0.01804687 1.80210937 0.03609375 2.73046875 0.0546875 C3.41753906 0.07789063 4.10460937 0.10109375 4.8125 0.125 C4.57685605 4.20949505 4.40287881 6.46714932 1.625 9.5625 C-1.65462979 11.38451655 -3.49292033 11.69971239 -7.1875 11.125 C-9.1875 8.125 -9.1875 8.125 -9 5.0625 C-7.5989287 -0.00291163 -4.69539616 -0.12195834 0 0 Z " fill="#EDEDED" transform="translate(225.1875,738.875)"/>
<path d="M0 0 C0.46707789 4.01686987 0.32150834 5.56501812 -2.125 8.875 C-5 11 -5 11 -8.1875 11.4375 C-11 11 -11 11 -13 9 C-13.4375 6.0625 -13.4375 6.0625 -13 3 C-9.04892571 -0.70413214 -5.10391767 -0.25952124 0 0 Z " fill="#F3F3F3" transform="translate(434,739)"/>
<path d="M0 0 C0.33 0 0.66 0 1 0 C1.08126109 2.72977064 1.14061663 5.4571017 1.1875 8.1875 C1.21263672 8.95642578 1.23777344 9.72535156 1.26367188 10.51757812 C1.33748306 16.2502465 0.30511887 19.52413158 -3.6875 23.8125 C-7.0788302 25.55399389 -10.31530665 25.69316014 -14 25 C-17 23 -17 23 -19 21 C-18.67 19.02 -18.34 17.04 -18 15 C-17.01 15 -16.02 15 -15 15 C-14.34 16.65 -13.68 18.3 -13 20 C-10.21160696 20.50265692 -10.21160696 20.50265692 -7 20 C-4.98572133 18.17755739 -3.61429713 16.21389321 -2 14 C-1.67 14 -1.34 14 -1 14 C-0.67 9.38 -0.34 4.76 0 0 Z " fill="#1C1C1C" transform="translate(366,387)"/>
<path d="M0 0 C0.99 0.66 1.98 1.32 3 2 C3.33223599 5.00508947 3.46364318 7.7459105 3.4375 10.75 C3.45748047 11.54921875 3.47746094 12.3484375 3.49804688 13.171875 C3.49347464 18.73171061 2.51785129 21.68105387 -1 26 C-1.99 25.67 -2.98 25.34 -4 25 C-3.01 23.515 -3.01 23.515 -2 22 C-1.72487581 19.67733918 -1.72487581 19.67733918 -1.8046875 17.11328125 C-1.81113281 16.17548828 -1.81757812 15.23769531 -1.82421875 14.27148438 C-1.84935547 12.80678711 -1.84935547 12.80678711 -1.875 11.3125 C-1.88402344 10.32443359 -1.89304687 9.33636719 -1.90234375 8.31835938 C-1.9259157 5.87866235 -1.95881978 3.43945303 -2 1 C-1.34 0.67 -0.68 0.34 0 0 Z " fill="#050505" transform="translate(584,310)"/>
<path d="M0 0 C0.33 0 0.66 0 1 0 C1.33 4.95 1.66 9.9 2 15 C2.99 15 3.98 15 5 15 C3.71942448 18.94844117 2.56038756 20.84388397 -1 23 C-3.47265625 23.3984375 -3.47265625 23.3984375 -6.0625 23.375 C-6.91972656 23.38273437 -7.77695312 23.39046875 -8.66015625 23.3984375 C-11.40312296 22.93135469 -12.28099347 22.13044088 -14 20 C-13.34 19.34 -12.68 18.68 -12 18 C-11.85482256 15.0906442 -11.81369204 12.280054 -11.875 9.375 C-11.88402344 8.57320313 -11.89304687 7.77140625 -11.90234375 6.9453125 C-11.92593777 4.96341477 -11.96180935 2.98167019 -12 1 C-11.67 1 -11.34 1 -11 1 C-10.67 6.94 -10.34 12.88 -10 19 C-4.23112508 19.5547002 -4.23112508 19.5547002 -1 17 C-0.61615491 14.06402461 -0.396157 11.31972627 -0.3125 8.375 C-0.27833984 7.57320313 -0.24417969 6.77140625 -0.20898438 5.9453125 C-0.12643122 3.96403682 -0.06154084 1.98203963 0 0 Z " fill="#141414" transform="translate(338,431)"/>
<path d="M0 0 C1.32 0.33 2.64 0.66 4 1 C4.90238747 3.70716242 5.11851302 5.23776768 5.09765625 8.01171875 C5.09443359 8.76904297 5.09121094 9.52636719 5.08789062 10.30664062 C5.07951172 11.09232422 5.07113281 11.87800781 5.0625 12.6875 C5.05798828 13.48478516 5.05347656 14.28207031 5.04882812 15.10351562 C5.0370585 17.06904257 5.01912348 19.03453085 5 21 C4.01 21.33 3.02 21.66 2 22 C1.34 21.67 0.68 21.34 0 21 C0 14.07 0 7.14 0 0 Z " fill="#050505" transform="translate(344,468)"/>
<path d="M0 0 C2 1.5625 2 1.5625 3 3 C2.34 3 1.68 3 1 3 C0.67 4.32 0.34 5.64 0 7 C-0.556875 6.2265625 -0.556875 6.2265625 -1.125 5.4375 C-3.03173152 3.63680017 -3.03173152 3.63680017 -6.1875 4.3125 C-7.5796875 4.6528125 -7.5796875 4.6528125 -9 5 C-9.18175781 5.63808594 -9.36351562 6.27617187 -9.55078125 6.93359375 C-9.80214844 7.75988281 -10.05351562 8.58617187 -10.3125 9.4375 C-10.55613281 10.26121094 -10.79976563 11.08492188 -11.05078125 11.93359375 C-11.36402344 12.61550781 -11.67726563 13.29742187 -12 14 C-12.99 14.33 -13.98 14.66 -15 15 C-15.62644556 4.90726598 -15.62644556 4.90726598 -13.1875 1.375 C-8.69943974 -1.44606645 -4.98233859 -1.21444503 0 0 Z " fill="#121212" transform="translate(343,465)"/>
<path d="M0 0 C2.4375 1.75 2.4375 1.75 4 4 C4 5.32 4 6.64 4 8 C-0.95 8 -5.9 8 -11 8 C-10 3 -10 3 -8.875 1.1875 C-5.84814901 -0.72950563 -3.4846244 -0.42793633 0 0 Z " fill="#F1F1F1" transform="translate(341,725)"/>
<path d="M0 0 C2.875 1.75 2.875 1.75 5 4 C5 5.32 5 6.64 5 8 C0.05 8 -4.9 8 -10 8 C-9 3 -9 3 -7.8125 1.1875 C-5.05641317 -0.61821206 -3.22701096 -0.45178153 0 0 Z " fill="#F3F3F3" transform="translate(800,725)"/>
<path d="M0 0 C0.99 0.33 1.98 0.66 3 1 C3.05390357 3.93774463 3.0936255 6.87450232 3.125 9.8125 C3.14175781 10.64587891 3.15851562 11.47925781 3.17578125 12.33789062 C3.18222656 13.14033203 3.18867187 13.94277344 3.1953125 14.76953125 C3.20578613 15.50792236 3.21625977 16.24631348 3.22705078 17.00708008 C3 19 3 19 1 22 C0.67 21.34 0.34 20.68 0 20 C-0.66 20.33 -1.32 20.66 -2 21 C-2 14.4 -2 7.8 -2 1 C-1.34 0.67 -0.68 0.34 0 0 Z " fill="#060606" transform="translate(517,311)"/>
<path d="M0 0 C0 8.25 0 16.5 0 25 C-1.32 25 -2.64 25 -4 25 C-5.75752146 21.48495709 -5.26953401 17.49766748 -5.3125 13.625 C-5.34150391 12.76132812 -5.37050781 11.89765625 -5.40039062 11.0078125 C-5.46449131 4.61746749 -5.46449131 4.61746749 -3.04296875 1.3984375 C-1 0 -1 0 0 0 Z " fill="#050505" transform="translate(327,425)"/>
<path d="M0 0 C0.33 0 0.66 0 1 0 C1.06058594 1.07121094 1.12117188 2.14242188 1.18359375 3.24609375 C1.26798537 4.64324391 1.35263406 6.04037857 1.4375 7.4375 C1.47681641 8.14455078 1.51613281 8.85160156 1.55664062 9.58007812 C1.47624438 13.08690419 1.47624438 13.08690419 3 16 C6.45821402 16.25003964 6.45821402 16.25003964 10 16 C10.66 15.34 11.32 14.68 12 14 C12.99 14.33 13.98 14.66 15 15 C14.6875 16.875 14.6875 16.875 14 19 C9.764379 21.82374733 5.97312803 21.65820812 1 21 C-1.6875 19.3125 -1.6875 19.3125 -3 17 C-2.75 14.25 -2.75 14.25 -2 12 C-1.67 12 -1.34 12 -1 12 C-0.67 8.04 -0.34 4.08 0 0 Z " fill="#141414" transform="translate(503,316)"/>
<path d="M0 0 C2.91927604 1.3961755 4.72202996 2.72202996 7 5 C7 5.99 7 6.98 7 8 C6.01 8.33 5.02 8.66 4 9 C3.67 13.29 3.34 17.58 3 22 C2.67 22 2.34 22 2 22 C1.93941406 20.85660156 1.87882812 19.71320312 1.81640625 18.53515625 C1.73201572 17.04425695 1.64736698 15.55337225 1.5625 14.0625 C1.52318359 13.30775391 1.48386719 12.55300781 1.44335938 11.77539062 C1.55961976 8.08055813 1.55961976 8.08055813 0 5 C-3.45821402 4.74996036 -3.45821402 4.74996036 -7 5 C-7.66 5.66 -8.32 6.32 -9 7 C-9.33 6.01 -9.66 5.02 -10 4 C-10.99 4.495 -10.99 4.495 -12 5 C-9.43972626 -0.66917756 -5.9172865 -0.65873823 0 0 Z " fill="#141414" transform="translate(437,550)"/>
<path d="M0 0 C5.54156171 2.82115869 5.54156171 2.82115869 6.875 6.25 C6.91625 6.8275 6.9575 7.405 7 8 C6.34 8 5.68 8 5 8 C3.78306124 10.43387753 3.68040104 12.41838846 3.4375 15.125 C3.35371094 16.03507812 3.26992188 16.94515625 3.18359375 17.8828125 C3.12300781 18.58148438 3.06242188 19.28015625 3 20 C2.67 20 2.34 20 2 20 C2 15.38 2 10.76 2 6 C0.576875 5.855625 -0.84625 5.71125 -2.3125 5.5625 C-5.11102904 5.27859126 -7.3093858 4.8968714 -10 4 C-10.99 4.66 -11.98 5.32 -13 6 C-10.3879945 -0.02770499 -6.22142145 -0.96255954 0 0 Z " fill="#1A1A1A" transform="translate(576,260)"/>
<path d="M0 0 C0.08710289 3.10398978 0.14042309 6.20766548 0.1875 9.3125 C0.21263672 10.19357422 0.23777344 11.07464844 0.26367188 11.98242188 C0.27333984 12.82998047 0.28300781 13.67753906 0.29296875 14.55078125 C0.3086792 15.33106689 0.32438965 16.11135254 0.34057617 16.9152832 C-0.08152696 19.49903853 -1.01489942 20.36292167 -3 22 C-5.1165563 18.82516555 -5.22929149 18.33300995 -4.9765625 14.76953125 C-4.925 13.96708984 -4.8734375 13.16464844 -4.8203125 12.33789062 C-4.75585938 11.50451172 -4.69140625 10.67113281 -4.625 9.8125 C-4.56828125 8.96751953 -4.5115625 8.12253906 -4.453125 7.25195312 C-4.31179176 5.16728783 -4.1571675 3.08353134 -4 1 C-2 0 -2 0 0 0 Z " fill="#050505" transform="translate(353,344)"/>
<path d="M0 0 C1.32 0 2.64 0 4 0 C4.05390357 2.93774463 4.0936255 5.87450232 4.125 8.8125 C4.14175781 9.64587891 4.15851563 10.47925781 4.17578125 11.33789062 C4.18222656 12.14033203 4.18867188 12.94277344 4.1953125 13.76953125 C4.20578613 14.50792236 4.21625977 15.24631348 4.22705078 16.00708008 C4 18 4 18 2 21 C1.01 20.67 0.02 20.34 -1 20 C-0.67 13.4 -0.34 6.8 0 0 Z " fill="#030303" transform="translate(440,558)"/>
<path d="M0 0 C0.66 0.33 1.32 0.66 2 1 C1.67 7.6 1.34 14.2 1 21 C-3 19 -3 19 -4 16 C-4.50116929 10.69253511 -4.88792792 6.41513513 -2 1.8125 C-1.34 1.214375 -0.68 0.61625 0 0 Z " fill="#070707" transform="translate(518,264)"/>
<path d="M0 0 C0.33 0 0.66 0 1 0 C1.06058594 1.07121094 1.12117187 2.14242188 1.18359375 3.24609375 C1.26798537 4.64324391 1.35263406 6.04037857 1.4375 7.4375 C1.47681641 8.14455078 1.51613281 8.85160156 1.55664062 9.58007812 C1.47624438 13.08690419 1.47624438 13.08690419 3 16 C6.45821402 16.25003964 6.45821402 16.25003964 10 16 C10.66 15.34 11.32 14.68 12 14 C12.33 15.32 12.66 16.64 13 18 C12.34 18.33 11.68 18.66 11 19 C11 19.66 11 20.32 11 21 C9.58376784 21.05447047 8.16691809 21.09300508 6.75 21.125 C5.56664062 21.15980469 5.56664062 21.15980469 4.359375 21.1953125 C1.75289611 20.97954438 0.19232417 20.40935125 -2 19 C-2.75 16.875 -2.75 16.875 -3 15 C-2.34 15 -1.68 15 -1 15 C-0.67 10.05 -0.34 5.1 0 0 Z " fill="#222222" transform="translate(570,316)"/>
<path d="M0 0 C2.0625 0.4375 2.0625 0.4375 4 1 C3.8595017 3.7920301 3.71284617 6.58349796 3.5625 9.375 C3.50352539 10.56609375 3.50352539 10.56609375 3.44335938 11.78125 C3.11328125 17.7734375 3.11328125 17.7734375 2 20 C1.01 20 0.02 20 -1 20 C-1.02888514 16.85418577 -1.04675923 13.70840531 -1.0625 10.5625 C-1.07087891 9.66466797 -1.07925781 8.76683594 -1.08789062 7.84179688 C-1.09111328 6.98779297 -1.09433594 6.13378906 -1.09765625 5.25390625 C-1.10551147 4.06776733 -1.10551147 4.06776733 -1.11352539 2.85766602 C-1 1 -1 1 0 0 Z " fill="#040404" transform="translate(567,311)"/>
<path d="M0 0 C0.99 0.33 1.98 0.66 3 1 C3 6.94 3 12.88 3 19 C2.34 19.33 1.68 19.66 1 20 C0.34 19.67 -0.32 19.34 -1 19 C-1.02683987 16.02077407 -1.04676037 13.04178705 -1.0625 10.0625 C-1.07087891 9.21236328 -1.07925781 8.36222656 -1.08789062 7.48632812 C-1.09111328 6.67744141 -1.09433594 5.86855469 -1.09765625 5.03515625 C-1.10289307 4.2862915 -1.10812988 3.53742676 -1.11352539 2.76586914 C-1 1 -1 1 0 0 Z " fill="#030303" transform="translate(503,265)"/>
<path d="M0 0 C0 4.95 0 9.9 0 15 C-0.99 15.495 -0.99 15.495 -2 16 C-2.66 16.99 -3.32 17.98 -4 19 C-5 18 -5 18 -5.1328125 15.1640625 C-5.13023437 13.99617187 -5.12765625 12.82828125 -5.125 11.625 C-5.12757813 10.46226562 -5.13015625 9.29953125 -5.1328125 8.1015625 C-5 5 -5 5 -4 2 C-1 0 -1 0 0 0 Z " fill="#060606" transform="translate(428,553)"/>
<path d="M0 0 C2.0625 2.0625 2.0625 2.0625 3 4 C2.01 5.485 2.01 5.485 1 7 C0.34 7 -0.32 7 -1 7 C-1.66 6.01 -2.32 5.02 -3 4 C-5.95817107 3.74994614 -5.95817107 3.74994614 -9 4 C-9.99 4 -10.98 4 -12 4 C-14.15028304 4.94978897 -14.15028304 4.94978897 -16 6 C-15.13166723 3.00030496 -14.57799424 1.3853295 -11.9375 -0.375 C-7.81619317 -1.25187379 -4.0716627 -1.12186468 0 0 Z " fill="#0E0E0E" transform="translate(531,261)"/>
<path d="M0 0 C0.66 0 1.32 0 2 0 C2 0.66 2 1.32 2 2 C2.66 2 3.32 2 4 2 C4 7.28 4 12.56 4 18 C2.02 18.99 2.02 18.99 0 20 C0 13.4 0 6.8 0 0 Z " fill="#050505" transform="translate(499,311)"/>
<path d="M0 0 C3 2.5 3 2.5 5 5 C4.01 5.495 4.01 5.495 3 6 C1.86649466 8.01669827 1.86649466 8.01669827 1 10 C0.34 8.35 -0.32 6.7 -1 5 C-2.62490954 4.97301811 -4.24994633 4.95361243 -5.875 4.9375 C-6.77992188 4.92589844 -7.68484375 4.91429687 -8.6171875 4.90234375 C-11.0168585 4.83750743 -11.0168585 4.83750743 -13 6 C-12.67012361 3.52592708 -12.42027913 2.3362233 -10.4375 0.75 C-6.91737546 -0.33311524 -3.60523445 -0.73532505 0 0 Z " fill="#0D0D0D" transform="translate(500,260)"/>
<path d="M0 0 C0 2.97 0 5.94 0 9 C-0.99 9 -1.98 9 -3 9 C-3.33 8.01 -3.66 7.02 -4 6 C-4.78375 6.495 -5.5675 6.99 -6.375 7.5 C-9 9 -9 9 -11 9 C-11 5 -11 5 -8.3125 2.25 C-5.50190199 0.06694644 -3.61278117 -0.53129135 0 0 Z " fill="#0E0E0E" transform="translate(429,508)"/>
<path d="M0 0 C1.485 0.99 1.485 0.99 3 2 C3.2208564 4.95064148 3.28060989 7.68368231 3.1875 10.625 C3.17396484 11.42679687 3.16042969 12.22859375 3.14648438 13.0546875 C3.11109051 15.03674378 3.05728234 17.01845551 3 19 C2.01 19.33 1.02 19.66 0 20 C-1.5220959 18.4779041 -1.12959521 17.11789918 -1.1328125 15 C-1.13410156 14.195625 -1.13539063 13.39125 -1.13671875 12.5625 C-1.13285156 11.716875 -1.12898438 10.87125 -1.125 10 C-1.12886719 9.154375 -1.13273437 8.30875 -1.13671875 7.4375 C-1.13542969 6.633125 -1.13414062 5.82875 -1.1328125 5 C-1.13168457 4.2575 -1.13055664 3.515 -1.12939453 2.75 C-1 1 -1 1 0 0 Z " fill="#020202" transform="translate(347,386)"/>
<path d="M0 0 C1.32 0 2.64 0 4 0 C5.18681726 3.56045177 5.09689832 6.43808337 5.0625 10.1875 C5.05347656 11.45980469 5.04445313 12.73210937 5.03515625 14.04296875 C5.02355469 15.01878906 5.01195312 15.99460937 5 17 C3.68 17 2.36 17 1 17 C0.67 11.39 0.34 5.78 0 0 Z " fill="#020202" transform="translate(338,429)"/>
<path d="M0 0 C0.99 0.33 1.98 0.66 3 1 C3 6.28 3 11.56 3 17 C1.02 17.99 1.02 17.99 -1 19 C-1.02690104 16.20826945 -1.04679053 13.41679652 -1.0625 10.625 C-1.07087891 9.8309375 -1.07925781 9.036875 -1.08789062 8.21875 C-1.11328125 2.2265625 -1.11328125 2.2265625 0 0 Z " fill="#020202" transform="translate(363,385)"/>
<path d="M0 0 C-0.99 1.485 -0.99 1.485 -2 3 C-2.66 3 -3.32 3 -4 3 C-4 12.24 -4 21.48 -4 31 C-4.33 31 -4.66 31 -5 31 C-5.33 23.08 -5.66 15.16 -6 7 C-7.65 7.66 -9.3 8.32 -11 9 C-11 5 -11 5 -8.3125 2.25 C-5.50190199 0.06694644 -3.61278117 -0.53129135 0 0 Z " fill="#383838" transform="translate(365,465)"/>
<path d="M0 0 C0.53625 0.268125 1.0725 0.53625 1.625 0.8125 C-0.85 2.2975 -0.85 2.2975 -3.375 3.8125 C-3.045 4.4725 -2.715 5.1325 -2.375 5.8125 C-2.290085 7.6988912 -2.267807 9.58828515 -2.27734375 11.4765625 C-2.28056641 12.59804688 -2.28378906 13.71953125 -2.28710938 14.875 C-2.29548828 16.050625 -2.30386719 17.22625 -2.3125 18.4375 C-2.31701172 19.62085938 -2.32152344 20.80421875 -2.32617188 22.0234375 C-2.33798533 24.95317507 -2.35445742 27.88281272 -2.375 30.8125 C-1.055 31.1425 0.265 31.4725 1.625 31.8125 C-0.025 31.8125 -1.675 31.8125 -3.375 31.8125 C-3.375 23.5625 -3.375 15.3125 -3.375 6.8125 C-4.695 7.8025 -6.015 8.7925 -7.375 9.8125 C-8.035 9.8125 -8.695 9.8125 -9.375 9.8125 C-9.16578357 6.15121248 -8.22641649 4.33301181 -5.5625 1.9375 C-2.375 -0.1875 -2.375 -0.1875 0 0 Z " fill="#1E1E1E" transform="translate(555.375,305.1875)"/>
<path d="M0 0 C0.66 0.33 1.32 0.66 2 1 C1.45730469 1.44730469 0.91460938 1.89460938 0.35546875 2.35546875 C-3.57840587 5.67977 -6.42853224 8.49993142 -9 13 C-9.5775 13.25910156 -10.155 13.51820313 -10.75 13.78515625 C-13.87835526 15.47425085 -15.94329933 17.98302307 -18.25 20.625 C-18.70890625 21.140625 -19.1678125 21.65625 -19.640625 22.1875 C-20.76592296 23.4534602 -21.88372177 24.72607942 -23 26 C-23.66 25.67 -24.32 25.34 -25 25 C-6.30009844 4.52819575 -6.30009844 4.52819575 0 0 Z " fill="#E0E0E0" transform="translate(631,368)"/>
<path d="M0 0 C0.66 0.33 1.32 0.66 2 1 C1.83701416 1.53463867 1.67402832 2.06927734 1.50610352 2.62011719 C0.8949893 5.4937985 0.8879395 8.13965754 0.90234375 11.078125 C0.90556641 12.23828125 0.90878906 13.3984375 0.91210938 14.59375 C0.92048828 15.8003125 0.92886719 17.006875 0.9375 18.25 C0.94201172 19.47203125 0.94652344 20.6940625 0.95117188 21.953125 C0.96295185 24.96879946 0.97940147 27.98437498 1 31 C0.67 31 0.34 31 0 31 C0 22.75 0 14.5 0 6 C-1.32 6.99 -2.64 7.98 -4 9 C-4.66 9 -5.32 9 -6 9 C-5.67 7.35 -5.34 5.7 -5 4 C-4.01 3.67 -3.02 3.34 -2 3 C-2 2.34 -2 1.68 -2 1 C-1.34 0.67 -0.68 0.34 0 0 Z " fill="#2E2E2E" transform="translate(330,508)"/>
<path d="M0 0 C1.32 0 2.64 0 4 0 C4 4.62 4 9.24 4 14 C2.68 14 1.36 14 0 14 C0 9.38 0 4.76 0 0 Z " fill="#030303" transform="translate(579,268)"/>
<path d="M0 0 C0.33 0.66 0.66 1.32 1 2 C1.66 2.33 2.32 2.66 3 3 C2.01 3.495 2.01 3.495 1 4 C0.731875 4.969375 0.46375 5.93875 0.1875 6.9375 C-0.204375 7.948125 -0.59625 8.95875 -1 10 C-2.65204456 10.70211894 -4.31923769 11.36971413 -6 12 C-6.309375 12.825 -6.61875 13.65 -6.9375 14.5 C-8 17 -8 17 -11.125 18.3125 C-12.07375 18.539375 -13.0225 18.76625 -14 19 C-10.37752041 14.01079734 -6.59095964 9.30318566 -2.41796875 4.76171875 C-0.78872745 2.94699605 -0.78872745 2.94699605 0 0 Z " fill="#202020" transform="translate(548,445)"/>
<path d="M0 0 C2.86724686 0.57344937 3.8614515 0.8614515 6 3 C6 3.99 6 4.98 6 6 C5.01 6.33 4.02 6.66 3 7 C2.67 11.29 2.34 15.58 2 20 C1.67 20 1.34 20 1 20 C0.83178895 17.4167588 0.66537483 14.83342301 0.5 12.25 C0.45230469 11.52039063 0.40460938 10.79078125 0.35546875 10.0390625 C0.14183103 6.68189836 0 3.36563724 0 0 Z " fill="#2C2C2C" transform="translate(438,552)"/>
<path d="M0 0 C-0.73291712 1.1774734 -1.48703801 2.34176854 -2.25 3.5 C-2.66765625 4.1496875 -3.0853125 4.799375 -3.515625 5.46875 C-4.00546875 5.9740625 -4.4953125 6.479375 -5 7 C-6.32 7 -7.64 7 -9 7 C-9 5.02 -9 3.04 -9 1 C-2.25 -1.125 -2.25 -1.125 0 0 Z " fill="#090909" transform="translate(483,513)"/>
<path d="M0 0 C0 1.98 0 3.96 0 6 C-1.32 5.67 -2.64 5.34 -4 5 C-4 4.01 -4 3.02 -4 2 C-6.05990478 3.29467677 -6.05990478 3.29467677 -8 5 C-8 5.99 -8 6.98 -8 8 C-8.99 8 -9.98 8 -11 8 C-11 4 -11 4 -8.875 1.75 C-5.59175057 -0.24849965 -3.77281397 -0.35095944 0 0 Z " fill="#090909" transform="translate(600,261)"/>
<path d="M0 0 C1.65 0.33 3.3 0.66 5 1 C4.67 2.65 4.34 4.3 4 6 C3.01 6.33 2.02 6.66 1 7 C1 7.66 1 8.32 1 9 C-0.32 9 -1.64 9 -3 9 C-2.01 6.03 -1.02 3.06 0 0 Z " fill="#1D1D1D" transform="translate(501,283)"/>
<path d="M0 0 C1.32 0.33 2.64 0.66 4 1 C2.68 1.33 1.36 1.66 0 2 C0 1.34 0 0.68 0 0 Z M-2 2 C-1.01 2.33 -0.02 2.66 1 3 C0.8125 4.8125 0.8125 4.8125 0 7 C-4.17857143 10 -4.17857143 10 -7 10 C-6.66275164 6.88045262 -6.3790035 5.3790035 -4.125 3.125 C-3.42375 2.75375 -2.7225 2.3825 -2 2 Z " fill="#222222" transform="translate(355,422)"/>
<path d="M0 0 C-0.99 0.8971875 -0.99 0.8971875 -2 1.8125 C-4.3373846 3.87501834 -4.3373846 3.87501834 -4 7 C-4.969375 7.12375 -5.93875 7.2475 -6.9375 7.375 C-8.4534375 7.684375 -8.4534375 7.684375 -10 8 C-10.33 8.66 -10.66 9.32 -11 10 C-11.375 7.8125 -11.375 7.8125 -11 5 C-7.52220203 1.36044399 -5.15214209 -0.75766795 0 0 Z " fill="#151515" transform="translate(490,305)"/>
<path d="M0 0 C0.598125 0.20625 1.19625 0.4125 1.8125 0.625 C2.1425 1.945 2.4725 3.265 2.8125 4.625 C2.1525 4.625 1.4925 4.625 0.8125 4.625 C-0.40443876 7.05887753 -0.50709896 9.04338846 -0.75 11.75 C-0.83378906 12.66007812 -0.91757812 13.57015625 -1.00390625 14.5078125 C-1.06449219 15.20648438 -1.12507812 15.90515625 -1.1875 16.625 C-1.5175 16.625 -1.8475 16.625 -2.1875 16.625 C-2.1875 12.005 -2.1875 7.385 -2.1875 2.625 C-3.1775 2.295 -4.1675 1.965 -5.1875 1.625 C-2.1875 -0.375 -2.1875 -0.375 0 0 Z " fill="#333333" transform="translate(580.1875,263.375)"/>
<path d="M0 0 C0.66 0.33 1.32 0.66 2 1 C2 4 2 4 0.8125 5.5625 C-1.32699313 7.25933938 -3.43483454 8.09872565 -6 9 C-5.69381595 5.32579134 -5.24228216 4.21864487 -2.4375 1.6875 C-1.633125 1.130625 -0.82875 0.57375 0 0 Z " fill="#202020" transform="translate(548,261)"/>
<path d="M0 0 C0.33 0 0.66 0 1 0 C1.04898438 0.85464844 1.09796875 1.70929688 1.1484375 2.58984375 C1.22320313 3.69457031 1.29796875 4.79929687 1.375 5.9375 C1.44460938 7.03964844 1.51421875 8.14179688 1.5859375 9.27734375 C1.72257813 10.17582031 1.85921875 11.07429688 2 12 C2.66 12.33 3.32 12.66 4 13 C3.75 15.375 3.75 15.375 3 18 C0.9375 19.3125 0.9375 19.3125 -1 20 C-1 17 -1 17 0 16 C0.07319621 13.30345146 0.09242537 10.63308542 0.0625 7.9375 C0.05798828 7.17888672 0.05347656 6.42027344 0.04882812 5.63867188 C0.0370068 3.75908129 0.01907078 1.87953101 0 0 Z " fill="#121212" transform="translate(582,316)"/>
<path d="M0 0 C0.33 0 0.66 0 1 0 C1 8.25 1 16.5 1 25 C-0.65 25 -2.3 25 -4 25 C-3.67 23.68 -3.34 22.36 -3 21 C-2.34 21 -1.68 21 -1 21 C-0.67 14.07 -0.34 7.14 0 0 Z " fill="#0E0E0E" transform="translate(599,267)"/>
<path d="M0 0 C0.33 0 0.66 0 1 0 C1.33 5.94 1.66 11.88 2 18 C2.66 18 3.32 18 4 18 C4 18.99 4 19.98 4 21 C3.01 21.33 2.02 21.66 1 22 C0.01 21.01 -0.98 20.02 -2 19 C-1.34 18.34 -0.68 17.68 0 17 C0.14517744 14.0906442 0.18630796 11.280054 0.125 8.375 C0.11597656 7.57320313 0.10695313 6.77140625 0.09765625 5.9453125 C0.07406223 3.96341477 0.03819065 1.98167019 0 0 Z " fill="#3B3B3B" transform="translate(326,432)"/>
<path d="M0 0 C-0.639375 0.2475 -1.27875 0.495 -1.9375 0.75 C-2.618125 1.1625 -3.29875 1.575 -4 2 C-4.12375 2.639375 -4.2475 3.27875 -4.375 3.9375 C-5 6 -5 6 -8.0625 7.75 C-9.5165625 8.36875 -9.5165625 8.36875 -11 9 C-11.4375 6.8125 -11.4375 6.8125 -11 4 C-7.63057727 0.48206277 -4.83181826 -1.73175787 0 0 Z " fill="#1E1E1E" transform="translate(337,381)"/>
<path d="M0 0 C7.50769231 0.61538462 7.50769231 0.61538462 10 2.5625 C10.33 3.036875 10.66 3.51125 11 4 C10.34 4 9.68 4 9 4 C8.67 5.32 8.34 6.64 8 8 C5.33333333 5.33333333 2.66666667 2.66666667 0 0 Z " fill="#242424" transform="translate(335,464)"/>
<path d="M0 0 C1.32 0.33 2.64 0.66 4 1 C4.33 1.99 4.66 2.98 5 4 C3.68 4.33 2.36 4.66 1 5 C1 9.95 1 14.9 1 20 C0.67 20 0.34 20 0 20 C0 13.4 0 6.8 0 0 Z " fill="#272727" transform="translate(348,340)"/>
<path d="M0 0 C0 3 0 3 -1.86328125 4.9375 C-2.67152344 5.618125 -3.47976563 6.29875 -4.3125 7 C-6.96997795 9.25949816 -9.57586106 11.48956485 -12 14 C-12.66 13.34 -13.32 12.68 -14 12 C-9.38 8.04 -4.76 4.08 0 0 Z " fill="#202020" transform="translate(499,546)"/>
<path d="M0 0 C1.32 0.66 2.64 1.32 4 2 C4 2.66 4 3.32 4 4 C3.34 4 2.68 4 2 4 C1.67 5.65 1.34 7.3 1 9 C0.67 8.34 0.34 7.68 0 7 C-0.99 6.67 -1.98 6.34 -3 6 C-1.125 1.125 -1.125 1.125 0 0 Z " fill="#141414" transform="translate(348,508)"/>
<path d="M0 0 C1.32 0.33 2.64 0.66 4 1 C3.67 3.64 3.34 6.28 3 9 C2.01 9.33 1.02 9.66 0 10 C0 6.7 0 3.4 0 0 Z " fill="#010101" transform="translate(328,470)"/>
<path d="M0 0 C0 0.99 0 1.98 0 3 C-2.64738916 4.4606285 -3.89448334 5 -7 5 C-7.99 5.495 -7.99 5.495 -9 6 C-8.3125 3.625 -8.3125 3.625 -7 1 C-2.71428571 -1.35714286 -2.71428571 -1.35714286 0 0 Z " fill="#1A1A1A" transform="translate(524,261)"/>
<path d="M0 0 C0 3 0 3 -2.0625 5.375 C-5.23879895 8.21339481 -8.49017753 10.5912983 -12 13 C-12 12.01 -12 11.02 -12 10 C-9.62890625 7.7734375 -9.62890625 7.7734375 -6.5625 5.375 C-5.55316406 4.57835937 -4.54382813 3.78171875 -3.50390625 2.9609375 C-2.67761719 2.31382812 -1.85132813 1.66671875 -1 1 C-0.67 0.67 -0.34 0.34 0 0 Z " fill="#252525" transform="translate(361,663)"/>
<path d="M0 0 C0.66 0.33 1.32 0.66 2 1 C2 4 2 4 1 7 C-0.65 7.33 -2.3 7.66 -4 8 C-3.649375 7.21625 -3.29875 6.4325 -2.9375 5.625 C-2.628125 4.75875 -2.31875 3.8925 -2 3 C-2.33 2.34 -2.66 1.68 -3 1 C-2.01 0.67 -1.02 0.34 0 0 Z " fill="#191919" transform="translate(467,473)"/>
<path d="M0 0 C0 0.33 0 0.66 0 1 C-2.31 1.33 -4.62 1.66 -7 2 C-7 2.99 -7 3.98 -7 5 C-8.98 5.33 -10.96 5.66 -13 6 C-12.67012361 3.52592708 -12.42027913 2.3362233 -10.4375 0.75 C-6.89085382 -0.34127575 -3.70471601 -0.12349053 0 0 Z " fill="#2F2F2F" transform="translate(500,260)"/>
<path d="M0 0 C0 0.99 0 1.98 0 3 C0.99 4.485 0.99 4.485 2 6 C0.35 6.33 -1.3 6.66 -3 7 C-3 7.66 -3 8.32 -3 9 C-3.66 9 -4.32 9 -5 9 C-5.3125 6.75 -5.3125 6.75 -5 4 C-2.5 1.6875 -2.5 1.6875 0 0 Z " fill="#202020" transform="translate(531,306)"/>
<path d="M0 0 C0.99 0 1.98 0 3 0 C1.66666667 3.33333333 0.33333333 6.66666667 -1 10 C-1.99 10 -2.98 10 -4 10 C-3.52449439 8.51965236 -3.04448784 7.04074979 -2.5625 5.5625 C-2.29566406 4.73878906 -2.02882813 3.91507813 -1.75390625 3.06640625 C-1 1 -1 1 0 0 Z " fill="#ECECEC" transform="translate(733,540)"/>
<path d="M0 0 C2.31 0.66 4.62 1.32 7 2 C6.01 2.495 6.01 2.495 5 3 C5 4.65 5 6.3 5 8 C4.01 7.67 3.02 7.34 2 7 C2.33 6.67 2.66 6.34 3 6 C2.67 5.01 2.34 4.02 2 3 C1.34 3 0.68 3 0 3 C0 2.01 0 1.02 0 0 Z " fill="#212121" transform="translate(361,747)"/>
<path d="M0 0 C0.66 0.33 1.32 0.66 2 1 C1.32829194 4.8063457 0.27253436 8.35206816 -1 12 C-1.66 11.01 -2.32 10.02 -3 9 C-2.5390625 6.73828125 -2.5390625 6.73828125 -1.625 4.3125 C-1.32851563 3.50425781 -1.03203125 2.69601562 -0.7265625 1.86328125 C-0.48679687 1.24839844 -0.24703125 0.63351562 0 0 Z " fill="#131313" transform="translate(676,654)"/>
<path d="M0 0 C1.98 0.99 3.96 1.98 6 3 C6 3.66 6 4.32 6 5 C6.99 5.33 7.98 5.66 9 6 C7.35 6.33 5.7 6.66 4 7 C0 2.25 0 2.25 0 0 Z " fill="#191919" transform="translate(410,750)"/>
<path d="M0 0 C0.33 0 0.66 0 1 0 C1.33 5.28 1.66 10.56 2 16 C1.01 16 0.02 16 -1 16 C-1.33 14.68 -1.66 13.36 -2 12 C-1.67 12 -1.34 12 -1 12 C-0.67 8.04 -0.34 4.08 0 0 Z " fill="#414141" transform="translate(503,316)"/>
<path d="M0 0 C0.66 0.33 1.32 0.66 2 1 C1.50628906 1.32613281 1.01257813 1.65226563 0.50390625 1.98828125 C-0.13675781 2.42527344 -0.77742187 2.86226562 -1.4375 3.3125 C-2.07558594 3.74175781 -2.71367188 4.17101562 -3.37109375 4.61328125 C-5.2885684 6.0034052 -5.2885684 6.0034052 -6 9 C-6.66 9 -7.32 9 -8 9 C-8 7.68 -8 6.36 -8 5 C-6.3203125 3.48046875 -6.3203125 3.48046875 -4.125 2.1875 C-3.40570312 1.74792969 -2.68640625 1.30835938 -1.9453125 0.85546875 C-1.30335938 0.57316406 -0.66140625 0.29085937 0 0 Z " fill="#212121" transform="translate(517,591)"/>
<path d="M0 0 C0.99 0.33 1.98 0.66 3 1 C2.2884375 1.6496875 2.2884375 1.6496875 1.5625 2.3125 C-0.23686957 4.02309613 -0.23686957 4.02309613 -1 7 C-4.0625 8.1875 -4.0625 8.1875 -7 9 C-6.02180976 7.68677212 -5.0424189 6.37443848 -4.0625 5.0625 C-3.51722656 4.33160156 -2.97195313 3.60070312 -2.41015625 2.84765625 C-1 1 -1 1 0 0 Z " fill="#181818" transform="translate(541,455)"/>
<path d="M0 0 C0.66 0 1.32 0 2 0 C1.01 3.3 0.02 6.6 -1 10 C-1.99 9.01 -2.98 8.02 -4 7 C-2.92598892 4.08482708 -2.22189824 2.22189824 0 0 Z " fill="#313131" transform="translate(350,380)"/>
<path d="M0 0 C0 1.32 0 2.64 0 4 C-2.5 6.25 -2.5 6.25 -5 8 C-5.33 6.35 -5.66 4.7 -6 3 C-2.25 0 -2.25 0 0 0 Z " fill="#F0F0F0" transform="translate(552,312)"/>
<path d="M0 0 C0.99 0 1.98 0 3 0 C3 1.32 3 2.64 3 4 C1.824375 4.4640625 1.824375 4.4640625 0.625 4.9375 C-1.92330128 5.92875038 -1.92330128 5.92875038 -4 7 C-2.79618552 4.50638429 -1.54571278 2.31856917 0 0 Z " fill="#DDDDDD" transform="translate(530,483)"/>
<path d="M0 0 C2.86724686 0.57344937 3.8614515 0.8614515 6 3 C6.26991906 5.68839385 6.08737357 8.29141936 6 11 C5.67 11 5.34 11 5 11 C5 8.69 5 6.38 5 4 C2.525 3.01 2.525 3.01 0 2 C0 1.34 0 0.68 0 0 Z " fill="#262626" transform="translate(472,421)"/>
<path d="M0 0 C0.66 0.66 1.32 1.32 2 2 C-0.31 4.64 -2.62 7.28 -5 10 C-5.33 9.01 -5.66 8.02 -6 7 C-4.78515625 5.17578125 -4.78515625 5.17578125 -3.0625 3.3125 C-2.49660156 2.68988281 -1.93070313 2.06726563 -1.34765625 1.42578125 C-0.90292969 0.95527344 -0.45820312 0.48476563 0 0 Z " fill="#DADADA" transform="translate(585,418)"/>
<path d="M0 0 C2.91517292 1.07401108 4.77810176 1.77810176 7 4 C5.25 4.75 5.25 4.75 3 5 C0.75 3.0625 0.75 3.0625 -1 1 C-0.67 0.67 -0.34 0.34 0 0 Z " fill="#131313" transform="translate(497,618)"/>
<path d="M0 0 C1.5625 1.25 1.5625 1.25 3 3 C2.6875 5.1875 2.6875 5.1875 2 7 C0.68 6.34 -0.64 5.68 -2 5 C-1.34 3.35 -0.68 1.7 0 0 Z " fill="#191919" transform="translate(337,362)"/>
<path d="M0 0 C0.99 0.33 1.98 0.66 3 1 C2.1875 2.9375 2.1875 2.9375 1 5 C0.01 5.33 -0.98 5.66 -2 6 C-2.66 5.34 -3.32 4.68 -4 4 C-2.68 3.67 -1.36 3.34 0 3 C0 2.01 0 1.02 0 0 Z " fill="#131313" transform="translate(654,600)"/>
<path d="M0 0 C0.66 0.33 1.32 0.66 2 1 C1.67 1.66 1.34 2.32 1 3 C1.66 3.33 2.32 3.66 3 4 C0.525 5.485 0.525 5.485 -2 7 C-2.125 4.625 -2.125 4.625 -2 2 C-1.34 1.34 -0.68 0.68 0 0 Z " fill="#1A1A1A" transform="translate(356,553)"/>
<path d="M0 0 C1.70884005 1.62339805 3.37446717 3.29319053 5 5 C5 5.66 5 6.32 5 7 C2.5625 6.1875 2.5625 6.1875 0 5 C-0.33 4.01 -0.66 3.02 -1 2 C-0.67 1.34 -0.34 0.68 0 0 Z " fill="#DBDBDB" transform="translate(457,455)"/>
<path d="M0 0 C0.99 0.33 1.98 0.66 3 1 C3.33 1.99 3.66 2.98 4 4 C3.01 4.495 3.01 4.495 2 5 C2 4.34 2 3.68 2 3 C0.02 3.99 -1.96 4.98 -4 6 C-2.84826645 3.53199953 -1.95216435 1.95216435 0 0 Z " fill="#E1E1E1" transform="translate(453,451)"/>
<path d="M0 0 C1.32 0.33 2.64 0.66 4 1 C4 1.99 4 2.98 4 4 C3.34 4.66 2.68 5.32 2 6 C1.34 6 0.68 6 0 6 C0 4.02 0 2.04 0 0 Z " fill="#171717" transform="translate(361,382)"/>
<path d="M0 0 C0.66 0.33 1.32 0.66 2 1 C1.67 1.66 1.34 2.32 1 3 C1.66 3 2.32 3 3 3 C3 3.66 3 4.32 3 5 C1.35 5.33 -0.3 5.66 -2 6 C-1.125 1.125 -1.125 1.125 0 0 Z " fill="#373737" transform="translate(360,341)"/>
<path d="M0 0 C0 0.99 0 1.98 0 3 C-0.66 3.66 -1.32 4.32 -2 5 C-2 5.99 -2 6.98 -2 8 C-2.99 8 -3.98 8 -5 8 C-5 6.68 -5 5.36 -5 4 C-2.5 1.75 -2.5 1.75 0 0 Z " fill="#313131" transform="translate(594,261)"/>
<path d="M0 0 C2.0625 0.4375 2.0625 0.4375 4 1 C4 1.99 4 2.98 4 4 C2.68 4.33 1.36 4.66 0 5 C-0.5625 3.0625 -0.5625 3.0625 -1 1 C-0.67 0.67 -0.34 0.34 0 0 Z " fill="#F3F3F3" transform="translate(332,426)"/>
<path d="M0 0 C3 1 3 1 4 3 C3.236875 2.938125 2.47375 2.87625 1.6875 2.8125 C-1.04525312 2.74101915 -1.04525312 2.74101915 -2.8125 4.5 C-3.204375 4.995 -3.59625 5.49 -4 6 C-4 5.01 -4 4.02 -4 3 C-2.1875 1.25 -2.1875 1.25 0 0 Z " fill="#E3E3E3" transform="translate(434,291)"/>
<path d="M0 0 C0.99 0 1.98 0 3 0 C3.33 0.66 3.66 1.32 4 2 C2.625 4 2.625 4 1 6 C0.34 6 -0.32 6 -1 6 C-1.042721 4.33388095 -1.04063832 2.66617115 -1 1 C-0.67 0.67 -0.34 0.34 0 0 Z " fill="#010101" transform="translate(362,725)"/>
<path d="M0 0 C0.66 0.33 1.32 0.66 2 1 C1.75 2.875 1.75 2.875 1 5 C-1.0625 6.25 -1.0625 6.25 -3 7 C-2.67 5.68 -2.34 4.36 -2 3 C-1.34 3 -0.68 3 0 3 C0 2.01 0 1.02 0 0 Z " fill="#111111" transform="translate(516,330)"/>
</svg>
